<svg xmlns="http://www.w3.org/2000/svg" xmlns:xlink="http://www.w3.org/1999/xlink" width="1080" zoomAndPan="magnify" viewBox="0 0 810 809.999993" height="1080" preserveAspectRatio="xMidYMid meet" version="1.0"><defs><clipPath id="7d0c02d427"><path d="M 76.710938 104.558594 L 733.625 104.558594 L 733.625 582 L 76.710938 582 Z M 76.710938 104.558594 " clip-rule="nonzero"/></clipPath><clipPath id="ff84fcc93e"><path d="M 211 222.785156 L 733.625 222.785156 L 733.625 641.558594 L 211 641.558594 Z M 211 222.785156 " clip-rule="nonzero"/></clipPath></defs><rect x="-81" width="972" fill="#ffffff" y="-80.999999" height="971.999992" fill-opacity="1"/><rect x="-81" width="972" fill="#ffffff" y="-80.999999" height="971.999992" fill-opacity="1"/><g clip-path="url(#7d0c02d427)"><path fill="#e92e37" d="M 222.582031 512.734375 L 288.511719 581.84375 L 733.632812 222.9375 L 237.363281 383.910156 Z M 134.839844 304.792969 C 134.839844 304.792969 173.585938 459.800781 174.390625 462.222656 C 175.199219 464.644531 211.882812 501.519531 211.882812 501.519531 Z M 193.765625 104.566406 L 228.558594 147.746094 L 76.710938 119.90625 Z M 193.765625 104.566406 " fill-opacity="1" fill-rule="nonzero"/></g><g clip-path="url(#ff84fcc93e)"><path fill="#d42924" d="M 488.824219 626.34375 L 733.632812 222.9375 L 288.511719 581.84375 L 345.519531 641.597656 Z M 217.410156 366.96875 L 237.363281 383.910156 L 222.582031 512.734375 L 211.882812 501.519531 L 217.410156 366.96875 " fill-opacity="1" fill-rule="nonzero"/></g><path fill="#c11f25" d="M 540.226562 620.464844 L 511.070312 589.679688 C 511.070312 589.679688 593.324219 454.140625 594.484375 452.234375 C 595.644531 450.320312 716.207031 486.0625 716.207031 486.0625 L 540.226562 620.464844 " fill-opacity="1" fill-rule="nonzero"/><path fill="#f04156" d="M 517.574219 186.34375 L 219.015625 350.199219 L 217.410156 366.96875 L 237.363281 383.910156 L 490.96875 301.648438 Z M 228.558594 147.746094 L 211.882812 501.519531 L 134.839844 304.792969 L 177.632812 138.410156 L 228.558594 147.746094 " fill-opacity="1" fill-rule="nonzero"/></svg>