<svg xmlns="http://www.w3.org/2000/svg" xmlns:xlink="http://www.w3.org/1999/xlink" width="1080" zoomAndPan="magnify" viewBox="0 0 810 809.999993" height="1080" preserveAspectRatio="xMidYMid meet" version="1.0"><rect x="-81" width="972" fill="#ffffff" y="-80.999999" height="971.999992" fill-opacity="1"/><rect x="-81" width="972" fill="#ffffff" y="-80.999999" height="971.999992" fill-opacity="1"/><path fill="#e92e37" d="M 550.289062 376.074219 C 550.289062 378.449219 550.230469 380.824219 550.113281 383.195312 C 549.996094 385.566406 549.824219 387.933594 549.589844 390.296875 C 549.355469 392.660156 549.066406 395.015625 548.71875 397.363281 C 548.371094 399.714844 547.964844 402.050781 547.5 404.382812 C 547.039062 406.710938 546.515625 409.027344 545.941406 411.328125 C 545.363281 413.632812 544.730469 415.921875 544.042969 418.195312 C 543.351562 420.464844 542.605469 422.71875 541.808594 424.957031 C 541.007812 427.191406 540.152344 429.40625 539.246094 431.601562 C 538.335938 433.792969 537.375 435.964844 536.359375 438.109375 C 535.34375 440.257812 534.277344 442.378906 533.15625 444.472656 C 532.035156 446.566406 530.867188 448.632812 529.644531 450.667969 C 528.425781 452.703125 527.15625 454.710938 525.835938 456.683594 C 524.515625 458.660156 523.148438 460.601562 521.734375 462.507812 C 520.320312 464.414062 518.859375 466.285156 517.355469 468.121094 C 515.847656 469.957031 514.296875 471.753906 512.703125 473.515625 C 511.109375 475.273438 509.472656 476.992188 507.792969 478.671875 C 506.113281 480.351562 504.394531 481.988281 502.632812 483.582031 C 500.875 485.175781 499.078125 486.726562 497.242188 488.234375 C 495.40625 489.742188 493.535156 491.199219 491.628906 492.617188 C 489.71875 494.03125 487.777344 495.398438 485.804688 496.714844 C 483.832031 498.035156 481.824219 499.304688 479.789062 500.527344 C 477.75 501.746094 475.6875 502.917969 473.59375 504.035156 C 471.496094 505.15625 469.378906 506.222656 467.230469 507.238281 C 465.085938 508.253906 462.914062 509.214844 460.71875 510.125 C 458.527344 511.03125 456.3125 511.886719 454.074219 512.6875 C 451.839844 513.488281 449.585938 514.230469 447.3125 514.921875 C 445.042969 515.609375 442.753906 516.242188 440.449219 516.820312 C 438.148438 517.398438 435.832031 517.917969 433.5 518.382812 C 431.171875 518.84375 428.832031 519.25 426.484375 519.597656 C 424.136719 519.945312 421.78125 520.238281 419.417969 520.46875 C 417.054688 520.703125 414.6875 520.878906 412.316406 520.992188 C 409.941406 521.109375 407.570312 521.167969 405.195312 521.167969 C 402.820312 521.167969 400.449219 521.109375 398.074219 520.992188 C 395.703125 520.878906 393.335938 520.703125 390.972656 520.46875 C 388.609375 520.238281 386.253906 519.945312 383.90625 519.597656 C 381.558594 519.25 379.21875 518.84375 376.890625 518.382812 C 374.558594 517.917969 372.242188 517.398438 369.941406 516.820312 C 367.636719 516.242188 365.347656 515.609375 363.078125 514.921875 C 360.804688 514.230469 358.550781 513.488281 356.316406 512.6875 C 354.078125 511.886719 351.863281 511.03125 349.671875 510.125 C 347.476562 509.214844 345.304688 508.253906 343.160156 507.238281 C 341.011719 506.222656 338.894531 505.15625 336.796875 504.035156 C 334.703125 502.917969 332.640625 501.746094 330.601562 500.527344 C 328.566406 499.304688 326.558594 498.035156 324.585938 496.714844 C 322.609375 495.398438 320.671875 494.03125 318.761719 492.617188 C 316.855469 491.199219 314.984375 489.742188 313.148438 488.234375 C 311.3125 486.726562 309.515625 485.175781 307.757812 483.582031 C 305.996094 481.988281 304.277344 480.351562 302.597656 478.671875 C 300.917969 476.992188 299.28125 475.273438 297.6875 473.515625 C 296.09375 471.753906 294.542969 469.957031 293.035156 468.121094 C 291.53125 466.285156 290.070312 464.414062 288.65625 462.507812 C 287.242188 460.601562 285.875 458.660156 284.554688 456.683594 C 283.234375 454.710938 281.964844 452.703125 280.746094 450.667969 C 279.523438 448.632812 278.351562 446.566406 277.234375 444.472656 C 276.113281 442.378906 275.046875 440.257812 274.03125 438.109375 C 273.015625 435.964844 272.054688 433.792969 271.144531 431.601562 C 270.238281 429.40625 269.382812 427.191406 268.582031 424.957031 C 267.78125 422.71875 267.039062 420.464844 266.347656 418.195312 C 265.660156 415.921875 265.027344 413.632812 264.449219 411.328125 C 263.871094 409.027344 263.351562 406.710938 262.890625 404.382812 C 262.425781 402.050781 262.019531 399.714844 261.671875 397.363281 C 261.324219 395.015625 261.03125 392.660156 260.800781 390.296875 C 260.566406 387.933594 260.394531 385.566406 260.277344 383.195312 C 260.160156 380.824219 260.101562 378.449219 260.101562 376.074219 C 260.101562 373.699219 260.160156 371.328125 260.277344 368.957031 C 260.394531 366.582031 260.566406 364.214844 260.800781 361.851562 C 261.03125 359.492188 261.324219 357.132812 261.671875 354.785156 C 262.019531 352.4375 262.425781 350.097656 262.890625 347.769531 C 263.351562 345.441406 263.871094 343.125 264.449219 340.820312 C 265.027344 338.515625 265.660156 336.230469 266.347656 333.957031 C 267.039062 331.683594 267.78125 329.429688 268.582031 327.195312 C 269.382812 324.957031 270.238281 322.742188 271.144531 320.550781 C 272.054688 318.355469 273.015625 316.1875 274.03125 314.039062 C 275.046875 311.894531 276.113281 309.773438 277.234375 307.679688 C 278.351562 305.585938 279.523438 303.519531 280.746094 301.480469 C 281.964844 299.445312 283.234375 297.441406 284.554688 295.464844 C 285.875 293.492188 287.242188 291.550781 288.65625 289.644531 C 290.070312 287.734375 291.53125 285.863281 293.035156 284.027344 C 294.542969 282.191406 296.09375 280.394531 297.6875 278.636719 C 299.28125 276.875 300.917969 275.15625 302.597656 273.476562 C 304.277344 271.800781 305.996094 270.164062 307.757812 268.566406 C 309.515625 266.972656 311.3125 265.421875 313.148438 263.917969 C 314.984375 262.410156 316.855469 260.949219 318.761719 259.535156 C 320.671875 258.121094 322.609375 256.753906 324.585938 255.433594 C 326.558594 254.113281 328.566406 252.84375 330.601562 251.625 C 332.640625 250.402344 334.703125 249.234375 336.796875 248.113281 C 338.894531 246.996094 341.011719 245.925781 343.160156 244.910156 C 345.304688 243.898438 347.476562 242.933594 349.671875 242.027344 C 351.863281 241.117188 354.078125 240.261719 356.316406 239.464844 C 358.550781 238.664062 360.804688 237.917969 363.078125 237.230469 C 365.347656 236.539062 367.636719 235.90625 369.941406 235.328125 C 372.242188 234.753906 374.558594 234.234375 376.890625 233.769531 C 379.21875 233.304688 381.558594 232.898438 383.90625 232.550781 C 386.253906 232.203125 388.609375 231.914062 390.972656 231.679688 C 393.335938 231.449219 395.703125 231.273438 398.074219 231.15625 C 400.449219 231.039062 402.820312 230.980469 405.195312 230.980469 C 407.570312 230.980469 409.941406 231.039062 412.316406 231.15625 C 414.6875 231.273438 417.054688 231.449219 419.417969 231.679688 C 421.78125 231.914062 424.136719 232.203125 426.484375 232.550781 C 428.832031 232.898438 431.171875 233.304688 433.5 233.769531 C 435.832031 234.234375 438.148438 234.753906 440.449219 235.328125 C 442.753906 235.90625 445.042969 236.539062 447.3125 237.230469 C 449.585938 237.917969 451.839844 238.664062 454.074219 239.464844 C 456.3125 240.261719 458.527344 241.117188 460.71875 242.027344 C 462.914062 242.933594 465.085938 243.898438 467.230469 244.910156 C 469.378906 245.925781 471.496094 246.996094 473.59375 248.113281 C 475.6875 249.234375 477.75 250.402344 479.789062 251.625 C 481.824219 252.84375 483.832031 254.113281 485.804688 255.433594 C 487.777344 256.753906 489.71875 258.121094 491.628906 259.535156 C 493.535156 260.949219 495.40625 262.410156 497.242188 263.917969 C 499.078125 265.421875 500.875 266.972656 502.632812 268.566406 C 504.394531 270.164062 506.113281 271.800781 507.792969 273.476562 C 509.472656 275.15625 511.109375 276.875 512.703125 278.636719 C 514.296875 280.394531 515.847656 282.191406 517.355469 284.027344 C 518.859375 285.863281 520.320312 287.734375 521.734375 289.644531 C 523.148438 291.550781 524.515625 293.492188 525.835938 295.464844 C 527.15625 297.441406 528.425781 299.445312 529.644531 301.480469 C 530.867188 303.519531 532.035156 305.585938 533.15625 307.679688 C 534.277344 309.773438 535.34375 311.894531 536.359375 314.039062 C 537.375 316.1875 538.335938 318.355469 539.246094 320.550781 C 540.152344 322.742188 541.007812 324.957031 541.808594 327.195312 C 542.605469 329.429688 543.351562 331.683594 544.042969 333.957031 C 544.730469 336.230469 545.363281 338.515625 545.941406 340.820312 C 546.515625 343.125 547.039062 345.441406 547.5 347.769531 C 547.964844 350.097656 548.371094 352.4375 548.71875 354.785156 C 549.066406 357.132812 549.355469 359.492188 549.589844 361.851562 C 549.824219 364.214844 549.996094 366.585938 550.113281 368.957031 C 550.230469 371.328125 550.289062 373.699219 550.289062 376.074219 Z M 550.289062 376.074219 " fill-opacity="1" fill-rule="nonzero"/><path fill="#000000" d="M 628.882812 372.773438 C 626.5625 369.628906 622.972656 367.839844 617.878906 367.296875 C 599.601562 365.359375 593.320312 383.40625 588.269531 397.882812 C 584.839844 407.746094 581.28125 417.949219 575.207031 420.175781 L 574.953125 420.265625 C 575.28125 390.421875 574.953125 301.09375 559.105469 288.542969 C 558.550781 288.078125 557.949219 287.683594 557.300781 287.359375 C 556.648438 287.035156 555.972656 286.792969 555.265625 286.628906 C 554.558594 286.464844 553.84375 286.386719 553.117188 286.394531 C 552.394531 286.402344 551.679688 286.492188 550.976562 286.667969 C 540.800781 289.214844 534.042969 307.414062 530.835938 340.800781 C 529.289062 329.867188 527.929688 320.253906 527.261719 315.265625 C 527.023438 313.453125 526.765625 311.277344 526.464844 308.882812 C 523.988281 287.738281 519.894531 252.667969 500.25 252.667969 C 499.832031 252.667969 499.398438 252.683594 498.957031 252.71875 C 480.703125 254.144531 479.113281 280.1875 479.808594 300.480469 C 477.414062 289.882812 473.089844 280.046875 461.679688 280.03125 C 460.394531 279.996094 459.121094 280.113281 457.863281 280.371094 C 456.601562 280.632812 455.390625 281.035156 454.222656 281.574219 C 453.054688 282.113281 451.964844 282.78125 450.949219 283.574219 C 449.9375 284.363281 449.027344 285.261719 448.21875 286.261719 C 442.523438 293.28125 441.09375 306.035156 444.308594 321.257812 C 444.722656 323.230469 445.171875 325.925781 445.632812 329.339844 C 440.351562 318.28125 431.933594 311.195312 423.890625 311.699219 C 422.535156 311.796875 421.222656 312.089844 419.957031 312.585938 C 419.621094 308.085938 418.570312 304.605469 416.765625 302.050781 C 415.773438 300.632812 414.539062 299.46875 413.0625 298.566406 C 411.585938 297.660156 409.992188 297.089844 408.273438 296.851562 C 400.296875 295.523438 391.28125 301.875 385 312.394531 C 385.796875 309.035156 386.460938 306.386719 387.058594 304.476562 C 391.671875 289.621094 391.421875 276.78125 386.394531 269.265625 C 385.683594 268.191406 384.855469 267.210938 383.917969 266.328125 C 382.980469 265.445312 381.953125 264.679688 380.835938 264.035156 C 379.722656 263.386719 378.546875 262.878906 377.3125 262.503906 C 376.082031 262.128906 374.820312 261.898438 373.535156 261.8125 C 362.082031 260.808594 357.039062 269.886719 353.648438 280.371094 C 356.164062 260.25 356.9375 234.277344 338.945312 231.171875 C 318.398438 227.652344 310.867188 263.257812 306.355469 284.5625 C 305.855469 286.957031 305.40625 289.046875 305 290.824219 C 304.679688 292.183594 304.28125 293.890625 303.820312 295.875 C 303.40625 275.3125 299.304688 263.535156 291.601562 260.847656 C 290.214844 260.367188 288.792969 260.222656 287.339844 260.414062 C 285.882812 260.605469 284.546875 261.113281 283.328125 261.933594 C 267.441406 271.683594 254.835938 344.34375 249.496094 380.359375 C 248.484375 375.6875 247.753906 370.972656 247.304688 366.210938 C 245.453125 350.183594 243.359375 332.015625 225.113281 329.898438 C 220.046875 329.300781 216.144531 330.25 213.144531 332.820312 C 207.679688 337.550781 207.460938 345.785156 207.160156 357.246094 C 206.878906 367.386719 206.539062 380.007812 202.277344 393.527344 C 192.582031 424.207031 210.558594 457.78125 226.429688 487.417969 C 229.535156 493.210938 232.46875 498.691406 235.144531 504.046875 C 247.519531 528.78125 214.117188 597.753906 200.195312 622.234375 C 200.03125 622.519531 199.898438 622.816406 199.796875 623.128906 C 199.695312 623.4375 199.621094 623.757812 199.582031 624.082031 C 199.542969 624.40625 199.53125 624.734375 199.554688 625.058594 C 199.582031 625.386719 199.636719 625.707031 199.722656 626.023438 C 199.808594 626.339844 199.925781 626.644531 200.074219 626.9375 C 200.222656 627.230469 200.394531 627.507812 200.597656 627.765625 C 200.796875 628.023438 201.023438 628.261719 201.269531 628.476562 C 201.519531 628.6875 201.785156 628.878906 202.070312 629.039062 C 202.355469 629.195312 202.65625 629.324219 202.96875 629.421875 C 203.28125 629.519531 203.601562 629.589844 203.929688 629.625 C 204.253906 629.664062 204.582031 629.667969 204.90625 629.640625 C 205.234375 629.617188 205.554688 629.558594 205.871094 629.472656 C 206.1875 629.382812 206.492188 629.265625 206.785156 629.121094 C 207.078125 628.972656 207.355469 628.800781 207.617188 628.601562 C 207.875 628.402344 208.113281 628.179688 208.332031 627.933594 C 208.550781 627.6875 208.742188 627.421875 208.90625 627.140625 C 211.054688 623.367188 261.417969 534.167969 244.101562 499.554688 C 241.335938 494.023438 238.246094 488.253906 235.261719 482.675781 C 220.324219 454.789062 203.402344 423.191406 211.820312 396.5 C 216.519531 381.621094 216.878906 368.207031 217.164062 357.402344 C 217.363281 349.910156 217.582031 342.164062 219.710938 340.320312 C 220.589844 339.5625 222.503906 339.59375 223.957031 339.761719 C 233.652344 340.886719 235.492188 350.933594 237.386719 367.3125 C 238.835938 380 240.351562 393.117188 249.808594 399.230469 L 250.054688 399.382812 C 253.644531 401.671875 257.414062 403.621094 260.738281 405.34375 C 274.71875 412.570312 284.8125 417.789062 284.867188 440.714844 C 284.917969 460.847656 276.738281 466.113281 276.730469 466.121094 C 276.4375 466.269531 276.164062 466.445312 275.90625 466.648438 C 275.648438 466.851562 275.414062 467.078125 275.203125 467.328125 C 274.992188 467.578125 274.804688 467.847656 274.644531 468.132812 C 274.484375 468.417969 274.355469 468.71875 274.253906 469.03125 C 274.152344 469.34375 274.085938 469.660156 274.046875 469.988281 C 274.007812 470.3125 274.003906 470.636719 274.027344 470.964844 C 274.054688 471.292969 274.113281 471.613281 274.203125 471.929688 C 274.292969 472.242188 274.410156 472.546875 274.558594 472.839844 C 274.710938 473.128906 274.886719 473.402344 275.089844 473.660156 C 275.292969 473.917969 275.519531 474.152344 275.769531 474.363281 C 276.015625 474.574219 276.285156 474.761719 276.570312 474.921875 C 276.855469 475.078125 277.15625 475.210938 277.464844 475.3125 C 277.777344 475.410156 278.097656 475.480469 278.421875 475.519531 C 278.746094 475.558594 279.070312 475.5625 279.398438 475.539062 C 279.726562 475.511719 280.046875 475.453125 280.359375 475.367188 C 280.675781 475.277344 280.980469 475.15625 281.269531 475.007812 C 281.828125 474.730469 294.921875 467.757812 294.835938 440.699219 C 294.761719 411.726562 279.785156 403.996094 265.3125 396.484375 C 262.367188 394.960938 259.972656 393.652344 257.84375 392.402344 C 265.328125 337.941406 278.492188 277.15625 288.53125 270.445312 C 294.5625 273.636719 297.070312 310.460938 285.890625 370.832031 C 285.832031 371.148438 285.800781 371.46875 285.804688 371.792969 C 285.804688 372.113281 285.839844 372.433594 285.902344 372.75 C 285.96875 373.066406 286.0625 373.375 286.1875 373.671875 C 286.308594 373.96875 286.460938 374.253906 286.640625 374.519531 C 286.820312 374.789062 287.023438 375.039062 287.25 375.265625 C 287.480469 375.496094 287.726562 375.699219 287.992188 375.878906 C 288.261719 376.058594 288.542969 376.214844 288.839844 376.339844 C 289.136719 376.464844 289.445312 376.558594 289.761719 376.625 C 290.082031 376.6875 290.40625 376.722656 290.730469 376.722656 C 291.058594 376.722656 291.382812 376.691406 291.703125 376.628906 C 292.023438 376.566406 292.335938 376.472656 292.640625 376.351562 C 292.945312 376.230469 293.230469 376.078125 293.507812 375.902344 C 293.78125 375.722656 294.035156 375.519531 294.269531 375.292969 C 294.503906 375.066406 294.714844 374.816406 294.902344 374.550781 C 295.089844 374.28125 295.25 373.996094 295.382812 373.699219 C 295.515625 373.398438 295.617188 373.089844 295.6875 372.773438 C 297.285156 366.195312 311.207031 308.140625 314.671875 293.132812 C 315.054688 291.472656 315.46875 289.53125 315.925781 287.378906 L 316.074219 286.667969 C 318.828125 273.695312 326.136719 239.128906 337.195312 241.066406 C 349.253906 243.148438 344.066406 277.445312 342.113281 290.394531 L 341.695312 293.117188 C 339.304688 309.394531 324.75 373.707031 324.597656 374.320312 C 324.53125 374.628906 324.496094 374.945312 324.488281 375.261719 C 324.480469 375.578125 324.503906 375.894531 324.558594 376.207031 C 324.609375 376.519531 324.691406 376.824219 324.804688 377.121094 C 324.917969 377.417969 325.054688 377.703125 325.21875 377.972656 C 325.386719 378.246094 325.578125 378.496094 325.789062 378.734375 C 326.003906 378.96875 326.238281 379.179688 326.492188 379.371094 C 326.746094 379.558594 327.015625 379.722656 327.300781 379.863281 C 327.589844 380 327.882812 380.109375 328.191406 380.191406 C 328.496094 380.273438 328.808594 380.328125 329.125 380.351562 C 329.441406 380.371094 329.757812 380.363281 330.074219 380.328125 C 330.390625 380.289062 330.699219 380.222656 331 380.125 C 331.304688 380.027344 331.59375 379.90625 331.871094 379.753906 C 332.152344 379.601562 332.414062 379.425781 332.65625 379.222656 C 332.902344 379.019531 333.125 378.796875 333.328125 378.550781 C 333.53125 378.308594 333.710938 378.046875 333.863281 377.769531 C 334.015625 377.488281 334.140625 377.199219 334.234375 376.898438 L 334.714844 375.300781 C 341.585938 352.960938 353.671875 313.789062 357.488281 302.828125 C 358.628906 299.578125 359.59375 295.972656 360.566406 292.347656 C 364.421875 277.988281 367.132812 271.238281 372.578125 271.789062 C 373.683594 271.824219 374.71875 272.109375 375.6875 272.652344 C 376.652344 273.191406 377.441406 273.925781 378.050781 274.851562 C 381.296875 279.710938 381.074219 289.933594 377.476562 301.550781 C 372.257812 318.347656 362.792969 377.871094 360.917969 389.832031 C 360.875 390.140625 360.859375 390.453125 360.875 390.765625 C 360.890625 391.082031 360.933594 391.390625 361.003906 391.695312 C 361.078125 392 361.179688 392.296875 361.308594 392.582031 C 361.4375 392.867188 361.589844 393.140625 361.769531 393.398438 C 361.949219 393.65625 362.152344 393.894531 362.378906 394.113281 C 362.601562 394.332031 362.84375 394.527344 363.105469 394.699219 C 363.367188 394.875 363.644531 395.019531 363.933594 395.140625 C 364.222656 395.261719 364.519531 395.355469 364.828125 395.421875 C 365.136719 395.488281 365.445312 395.523438 365.757812 395.527344 C 366.074219 395.535156 366.382812 395.511719 366.695312 395.460938 C 367.003906 395.410156 367.304688 395.328125 367.597656 395.21875 C 367.894531 395.109375 368.175781 394.972656 368.445312 394.8125 C 368.710938 394.648438 368.964844 394.464844 369.199219 394.253906 C 369.429688 394.046875 369.644531 393.816406 369.832031 393.566406 C 370.023438 393.316406 370.191406 393.050781 370.328125 392.773438 C 370.46875 392.492188 370.582031 392.199219 370.667969 391.898438 C 370.8125 391.371094 385.253906 338.117188 390.019531 324.984375 C 394.398438 312.902344 402.722656 306.058594 406.582031 306.726562 C 407.417969 306.78125 408.074219 307.148438 408.554688 307.828125 C 410.070312 309.984375 411.210938 316.238281 408.019531 333.785156 C 406.359375 342.890625 404.183594 362.269531 401.636719 384.699219 L 401.597656 385.042969 C 397.671875 419.90625 392.773438 463.289062 389.253906 471.394531 C 387.863281 474.585938 386.691406 477.609375 385.535156 480.554688 C 381.617188 490.625 378.226562 499.320312 367.277344 512.550781 C 350.738281 532.5 342.167969 567.734375 341.011719 593.746094 C 339.957031 617.445312 339.359375 622.886719 339.261719 623.6875 C 339.214844 624 339.195312 624.320312 339.203125 624.636719 C 339.214844 624.957031 339.257812 625.273438 339.328125 625.585938 C 339.402344 625.898438 339.5 626.199219 339.628906 626.492188 C 339.761719 626.78125 339.917969 627.058594 340.097656 627.324219 C 340.28125 627.585938 340.488281 627.828125 340.71875 628.050781 C 340.945312 628.273438 341.195312 628.472656 341.464844 628.644531 C 341.730469 628.820312 342.011719 628.96875 342.308594 629.089844 C 342.605469 629.210938 342.910156 629.300781 343.222656 629.363281 C 343.535156 629.425781 343.851562 629.460938 344.171875 629.460938 C 344.492188 629.460938 344.808594 629.433594 345.125 629.375 C 345.4375 629.316406 345.742188 629.226562 346.039062 629.109375 C 346.335938 628.992188 346.621094 628.84375 346.890625 628.671875 C 347.160156 628.5 347.410156 628.304688 347.640625 628.082031 C 347.871094 627.863281 348.082031 627.621094 348.265625 627.363281 C 348.453125 627.101562 348.609375 626.828125 348.742188 626.535156 C 348.875 626.246094 348.980469 625.941406 349.054688 625.632812 C 349.214844 624.835938 349.851562 620.152344 350.984375 594.195312 C 352.292969 564.917969 361.933594 534.667969 374.96875 518.917969 C 386.9375 504.453125 390.777344 494.605469 394.847656 484.160156 C 395.957031 481.328125 397.082031 478.441406 398.414062 475.382812 C 402.242188 466.550781 406.28125 432.695312 411.554688 385.824219 L 411.851562 383.167969 C 411.851562 382.992188 411.898438 382.808594 411.914062 382.632812 C 412.035156 388.109375 412.152344 393.925781 412.265625 399.964844 C 413.191406 447.136719 414.074219 481.234375 417.050781 490.378906 C 418.042969 493.394531 418.863281 496.234375 419.660156 499.019531 L 419.789062 499.464844 C 422.867188 510.222656 425.773438 520.378906 436.371094 535.898438 C 447.898438 552.796875 454.722656 583.773438 453.285156 613.066406 C 452.042969 639.0625 452.222656 643.738281 452.304688 644.550781 C 452.367188 645.164062 452.539062 645.742188 452.820312 646.289062 C 453.101562 646.835938 453.46875 647.316406 453.925781 647.726562 C 454.382812 648.136719 454.898438 648.453125 455.476562 648.671875 C 456.050781 648.890625 456.644531 648.996094 457.257812 648.996094 L 457.699219 648.996094 C 458.019531 648.964844 458.339844 648.902344 458.648438 648.808594 C 458.960938 648.71875 459.261719 648.597656 459.546875 648.445312 C 459.835938 648.296875 460.105469 648.121094 460.359375 647.917969 C 460.613281 647.714844 460.84375 647.492188 461.054688 647.242188 C 461.265625 646.996094 461.449219 646.730469 461.609375 646.449219 C 461.769531 646.167969 461.898438 645.871094 462 645.5625 C 462.101562 645.253906 462.175781 644.941406 462.214844 644.617188 C 462.257812 644.296875 462.265625 643.972656 462.246094 643.648438 C 462.246094 643.648438 462 639.660156 463.261719 613.558594 C 464.519531 587.460938 459.230469 551.714844 444.613281 530.289062 C 434.933594 516.109375 432.363281 507.148438 429.378906 496.777344 C 428.511719 493.726562 427.625 490.625 426.53125 487.3125 C 423.761719 478.878906 422.910156 435.050781 422.214844 399.8125 C 421.777344 377.207031 421.417969 357.691406 420.617188 348.5625 C 419.023438 330.808594 420.769531 324.679688 422.46875 322.671875 C 423.015625 322.035156 423.703125 321.730469 424.535156 321.753906 L 424.746094 321.753906 C 428.734375 321.753906 436.121094 329.085938 439.355469 341.46875 C 442.863281 354.9375 452.335938 409.355469 452.425781 409.890625 C 452.480469 410.199219 452.566406 410.503906 452.683594 410.796875 C 452.796875 411.089844 452.9375 411.371094 453.105469 411.640625 C 453.269531 411.90625 453.460938 412.15625 453.675781 412.386719 C 453.890625 412.621094 454.121094 412.832031 454.375 413.019531 C 454.628906 413.207031 454.894531 413.371094 455.179688 413.507812 C 455.460938 413.648438 455.757812 413.757812 456.058594 413.839844 C 456.363281 413.925781 456.671875 413.976562 456.988281 414.003906 C 457.300781 414.03125 457.617188 414.027344 457.929688 413.992188 C 458.246094 413.953125 458.550781 413.886719 458.855469 413.792969 C 459.15625 413.695312 459.445312 413.570312 459.722656 413.421875 C 460 413.269531 460.261719 413.09375 460.507812 412.890625 C 460.753906 412.691406 460.976562 412.46875 461.179688 412.226562 C 461.382812 411.980469 461.558594 411.722656 461.710938 411.445312 C 461.863281 411.167969 461.992188 410.878906 462.089844 410.578125 C 462.1875 410.277344 462.257812 409.96875 462.296875 409.65625 C 462.335938 409.339844 462.347656 409.027344 462.328125 408.710938 C 461.871094 401.441406 457.777344 337.136719 454.003906 319.296875 C 451.492188 307.398438 452.214844 297.191406 455.902344 292.660156 C 456.59375 291.796875 457.445312 291.136719 458.457031 290.6875 C 459.46875 290.238281 460.527344 290.046875 461.632812 290.117188 C 467.542969 290.117188 469.453125 298.667969 471.71875 311.84375 C 472.324219 315.394531 472.960938 319.070312 473.785156 322.414062 C 477.289062 336.609375 489.972656 397.722656 490.085938 398.273438 C 490.15625 398.582031 490.253906 398.882812 490.378906 399.171875 C 490.503906 399.464844 490.65625 399.742188 490.835938 400.003906 C 491.015625 400.265625 491.214844 400.507812 491.441406 400.730469 C 491.664062 400.953125 491.910156 401.152344 492.171875 401.332031 C 492.433594 401.507812 492.710938 401.660156 493.003906 401.78125 C 493.292969 401.90625 493.59375 402.003906 493.90625 402.070312 C 494.214844 402.136719 494.527344 402.171875 494.84375 402.179688 C 495.160156 402.1875 495.476562 402.167969 495.789062 402.113281 C 496.101562 402.0625 496.40625 401.980469 496.703125 401.871094 C 497 401.757812 497.285156 401.621094 497.554688 401.457031 C 497.824219 401.292969 498.078125 401.105469 498.3125 400.890625 C 498.546875 400.679688 498.761719 400.445312 498.953125 400.191406 C 499.140625 399.9375 499.308594 399.671875 499.445312 399.386719 C 499.585938 399.101562 499.699219 398.804688 499.78125 398.5 C 499.863281 398.195312 499.917969 397.882812 499.941406 397.566406 C 499.964844 397.25 499.960938 396.9375 499.925781 396.621094 L 499.925781 396.253906 C 498.480469 385.171875 491.265625 329.132812 490.445312 314.179688 L 490.285156 311.410156 C 489.535156 298.375 487.539062 263.726562 499.75 262.738281 L 500.148438 262.738281 C 511.03125 262.738281 515.042969 297.167969 516.5625 310.128906 C 516.847656 312.59375 517.105469 314.8125 517.359375 316.679688 C 519.546875 332.867188 528.863281 397.476562 528.921875 397.867188 C 528.96875 398.175781 529.042969 398.480469 529.144531 398.773438 C 529.25 399.070312 529.378906 399.355469 529.535156 399.625 C 529.695312 399.898438 529.875 400.152344 530.078125 400.386719 C 530.285156 400.625 530.511719 400.839844 530.753906 401.035156 C 531 401.230469 531.261719 401.402344 531.539062 401.546875 C 531.816406 401.691406 532.105469 401.8125 532.40625 401.902344 C 532.707031 401.992188 533.011719 402.054688 533.324219 402.089844 C 533.636719 402.125 533.949219 402.128906 534.261719 402.101562 C 534.574219 402.078125 534.878906 402.023438 535.183594 401.941406 C 535.484375 401.859375 535.777344 401.746094 536.058594 401.609375 C 536.339844 401.472656 536.605469 401.308594 536.855469 401.121094 C 537.105469 400.933594 537.339844 400.722656 537.550781 400.492188 C 537.761719 400.257812 537.949219 400.011719 538.113281 399.742188 C 538.277344 399.476562 538.414062 399.195312 538.527344 398.902344 C 538.640625 398.609375 538.722656 398.308594 538.777344 398 C 538.832031 397.691406 538.859375 397.382812 538.855469 397.070312 C 538.058594 346.367188 544.664062 299.984375 553.035156 296.53125 C 557.574219 300.734375 566.214844 336.617188 564.921875 423.289062 L 564.039062 423.519531 C 548.269531 427.660156 531.96875 431.9375 525.546875 460.222656 C 519.554688 486.644531 530.804688 496.28125 531.28125 496.679688 C 531.535156 496.878906 531.804688 497.050781 532.089844 497.199219 C 532.375 497.34375 532.671875 497.460938 532.980469 497.550781 C 533.289062 497.640625 533.601562 497.699219 533.921875 497.726562 C 534.242188 497.753906 534.5625 497.753906 534.882812 497.71875 C 535.199219 497.6875 535.515625 497.625 535.820312 497.53125 C 536.128906 497.4375 536.421875 497.316406 536.707031 497.164062 C 536.992188 497.015625 537.257812 496.839844 537.507812 496.636719 C 537.757812 496.433594 537.984375 496.210938 538.191406 495.964844 C 538.398438 495.71875 538.578125 495.457031 538.734375 495.175781 C 538.890625 494.894531 539.019531 494.601562 539.117188 494.296875 C 539.214844 493.992188 539.285156 493.679688 539.324219 493.359375 C 539.363281 493.042969 539.371094 492.722656 539.351562 492.402344 C 539.328125 492.082031 539.273438 491.765625 539.191406 491.457031 C 539.109375 491.148438 538.996094 490.847656 538.855469 490.558594 C 538.714844 490.269531 538.546875 490 538.355469 489.742188 C 538.160156 489.488281 537.945312 489.25 537.707031 489.035156 C 537.632812 488.972656 530.78125 482.269531 535.3125 462.425781 C 540.386719 440.085938 551.382812 437.195312 566.710938 433.175781 C 570.605469 432.152344 574.632812 431.089844 578.679688 429.617188 C 589.171875 425.761719 593.519531 413.296875 597.734375 401.234375 C 603.175781 385.632812 607.195312 376.242188 616.882812 377.296875 C 618.335938 377.449219 620.210938 377.832031 620.871094 378.765625 C 622.546875 381.03125 621.066406 388.632812 619.613281 395.992188 C 617.539062 406.578125 614.945312 419.746094 616.277344 435.296875 C 618.671875 463.167969 595.210938 490.296875 574.53125 514.234375 L 574.21875 514.601562 C 569.980469 519.507812 565.984375 524.175781 562.25 528.765625 C 537.808594 558.71875 567.378906 656.808594 568.632812 660.972656 C 568.730469 661.285156 568.855469 661.589844 569.011719 661.878906 C 569.164062 662.167969 569.347656 662.4375 569.554688 662.691406 C 569.765625 662.945312 569.996094 663.179688 570.25 663.386719 C 570.503906 663.59375 570.777344 663.773438 571.066406 663.929688 C 571.359375 664.085938 571.660156 664.210938 571.976562 664.304688 C 572.289062 664.398438 572.609375 664.460938 572.9375 664.492188 C 573.265625 664.527344 573.589844 664.523438 573.917969 664.492188 C 574.246094 664.460938 574.566406 664.394531 574.882812 664.300781 C 575.195312 664.203125 575.496094 664.078125 575.785156 663.921875 C 576.078125 663.765625 576.347656 663.585938 576.601562 663.375 C 576.855469 663.167969 577.085938 662.9375 577.292969 662.679688 C 577.503906 662.425781 577.683594 662.15625 577.839844 661.863281 C 577.992188 661.574219 578.117188 661.273438 578.210938 660.957031 C 578.308594 660.644531 578.371094 660.320312 578.402344 659.996094 C 578.433594 659.667969 578.433594 659.339844 578.402344 659.015625 C 578.367188 658.6875 578.304688 658.367188 578.207031 658.050781 C 569.996094 631.113281 552.507812 556.515625 569.996094 535.078125 C 573.890625 530.289062 578.089844 525.5 582.15625 520.714844 C 604.117188 495.285156 629.011719 466.457031 626.273438 434.410156 C 625.078125 420.289062 627.503906 407.894531 629.464844 397.875 C 631.589844 386.664062 633.175781 378.582031 628.882812 372.773438 Z M 628.882812 372.773438 " fill-opacity="1" fill-rule="nonzero"/><path fill="#000000" d="M 210.957031 274.378906 C 210.074219 274.382812 209.257812 274.15625 208.507812 273.695312 L 162.628906 245.910156 C 162.363281 245.75 162.113281 245.5625 161.882812 245.355469 C 161.652344 245.144531 161.445312 244.914062 161.261719 244.664062 C 161.078125 244.410156 160.917969 244.144531 160.785156 243.863281 C 160.65625 243.582031 160.550781 243.289062 160.476562 242.988281 C 160.402344 242.683594 160.359375 242.378906 160.34375 242.066406 C 160.332031 241.757812 160.347656 241.445312 160.394531 241.140625 C 160.441406 240.832031 160.515625 240.53125 160.625 240.238281 C 160.730469 239.945312 160.863281 239.664062 161.023438 239.398438 C 161.183594 239.132812 161.371094 238.886719 161.582031 238.65625 C 161.789062 238.425781 162.019531 238.21875 162.273438 238.035156 C 162.523438 237.847656 162.789062 237.691406 163.070312 237.558594 C 163.351562 237.425781 163.644531 237.324219 163.945312 237.25 C 164.25 237.175781 164.554688 237.128906 164.867188 237.117188 C 165.179688 237.101562 165.488281 237.117188 165.796875 237.164062 C 166.101562 237.210938 166.402344 237.289062 166.695312 237.394531 C 166.988281 237.5 167.269531 237.632812 167.535156 237.796875 L 213.445312 265.585938 C 213.886719 265.855469 214.269531 266.1875 214.601562 266.585938 C 214.929688 266.980469 215.191406 267.417969 215.378906 267.894531 C 215.566406 268.375 215.671875 268.871094 215.699219 269.386719 C 215.722656 269.902344 215.667969 270.40625 215.527344 270.902344 C 215.390625 271.398438 215.175781 271.859375 214.886719 272.285156 C 214.597656 272.710938 214.25 273.082031 213.839844 273.394531 C 213.429688 273.707031 212.980469 273.945312 212.492188 274.109375 C 212.007812 274.277344 211.503906 274.363281 210.988281 274.363281 Z M 210.957031 274.378906 " fill-opacity="1" fill-rule="nonzero"/><path fill="#000000" d="M 599.433594 274.378906 C 598.917969 274.378906 598.417969 274.292969 597.929688 274.128906 C 597.441406 273.960938 596.992188 273.722656 596.582031 273.410156 C 596.175781 273.097656 595.824219 272.726562 595.535156 272.300781 C 595.246094 271.875 595.03125 271.414062 594.894531 270.917969 C 594.753906 270.421875 594.699219 269.917969 594.722656 269.402344 C 594.75 268.890625 594.855469 268.390625 595.042969 267.914062 C 595.230469 267.433594 595.492188 266.996094 595.820312 266.601562 C 596.152344 266.207031 596.535156 265.871094 596.976562 265.601562 L 642.886719 237.8125 C 643.421875 237.542969 643.984375 237.378906 644.582031 237.324219 C 645.175781 237.269531 645.761719 237.324219 646.335938 237.488281 C 646.910156 237.652344 647.433594 237.917969 647.910156 238.285156 C 648.382812 238.648438 648.777344 239.085938 649.085938 239.597656 C 649.390625 240.109375 649.597656 240.660156 649.695312 241.25 C 649.796875 241.839844 649.785156 242.429688 649.664062 243.015625 C 649.539062 243.597656 649.316406 244.140625 648.988281 244.640625 C 648.660156 245.140625 648.25 245.566406 647.761719 245.910156 L 601.882812 273.695312 C 601.128906 274.15625 600.3125 274.382812 599.433594 274.378906 Z M 599.433594 274.378906 " fill-opacity="1" fill-rule="nonzero"/><path fill="#000000" d="M 305.582031 219.042969 C 304.851562 219.042969 304.160156 218.878906 303.503906 218.558594 C 302.847656 218.238281 302.292969 217.792969 301.839844 217.21875 L 254.53125 156.695312 C 254.355469 156.449219 254.203125 156.1875 254.074219 155.910156 C 253.949219 155.636719 253.847656 155.351562 253.777344 155.054688 C 253.703125 154.761719 253.660156 154.460938 253.644531 154.15625 C 253.632812 153.855469 253.644531 153.550781 253.6875 153.253906 C 253.730469 152.953125 253.804688 152.65625 253.902344 152.371094 C 254.003906 152.082031 254.128906 151.808594 254.28125 151.546875 C 254.433594 151.285156 254.609375 151.039062 254.808594 150.808594 C 255.007812 150.578125 255.226562 150.371094 255.464844 150.183594 C 255.703125 149.996094 255.960938 149.835938 256.230469 149.695312 C 256.5 149.558594 256.78125 149.449219 257.074219 149.363281 C 257.367188 149.28125 257.664062 149.222656 257.964844 149.195312 C 258.265625 149.171875 258.570312 149.171875 258.871094 149.203125 C 259.175781 149.234375 259.46875 149.292969 259.761719 149.382812 C 260.050781 149.46875 260.332031 149.582031 260.601562 149.726562 C 260.867188 149.867188 261.121094 150.03125 261.359375 150.222656 C 261.59375 150.410156 261.8125 150.621094 262.007812 150.855469 L 309.316406 211.375 C 309.59375 211.726562 309.8125 212.109375 309.980469 212.519531 C 310.148438 212.933594 310.257812 213.359375 310.304688 213.800781 C 310.351562 214.242188 310.335938 214.683594 310.257812 215.121094 C 310.183594 215.5625 310.046875 215.980469 309.851562 216.378906 C 309.65625 216.78125 309.410156 217.144531 309.113281 217.476562 C 308.816406 217.808594 308.476562 218.089844 308.101562 218.324219 C 307.722656 218.5625 307.320312 218.738281 306.890625 218.863281 C 306.464844 218.984375 306.027344 219.046875 305.582031 219.042969 Z M 305.582031 219.042969 " fill-opacity="1" fill-rule="nonzero"/><path fill="#000000" d="M 512.269531 219.042969 C 511.824219 219.046875 511.386719 218.984375 510.957031 218.863281 C 510.53125 218.738281 510.128906 218.5625 509.75 218.324219 C 509.375 218.089844 509.035156 217.808594 508.738281 217.476562 C 508.441406 217.144531 508.195312 216.78125 508 216.378906 C 507.804688 215.980469 507.667969 215.5625 507.59375 215.121094 C 507.515625 214.683594 507.5 214.242188 507.546875 213.800781 C 507.59375 213.359375 507.703125 212.933594 507.871094 212.519531 C 508.039062 212.109375 508.257812 211.726562 508.535156 211.375 L 555.84375 150.855469 C 556.039062 150.621094 556.253906 150.410156 556.492188 150.222656 C 556.730469 150.03125 556.980469 149.867188 557.25 149.726562 C 557.519531 149.582031 557.800781 149.46875 558.089844 149.382812 C 558.378906 149.292969 558.675781 149.234375 558.980469 149.203125 C 559.28125 149.171875 559.582031 149.167969 559.886719 149.195312 C 560.1875 149.222656 560.484375 149.28125 560.777344 149.363281 C 561.070312 149.449219 561.351562 149.558594 561.621094 149.695312 C 561.890625 149.835938 562.144531 149.996094 562.386719 150.183594 C 562.625 150.371094 562.84375 150.578125 563.042969 150.808594 C 563.242188 151.039062 563.417969 151.285156 563.570312 151.546875 C 563.722656 151.808594 563.847656 152.082031 563.949219 152.371094 C 564.046875 152.65625 564.121094 152.953125 564.164062 153.253906 C 564.207031 153.550781 564.21875 153.855469 564.203125 154.15625 C 564.191406 154.460938 564.144531 154.761719 564.074219 155.054688 C 564 155.351562 563.902344 155.636719 563.773438 155.910156 C 563.648438 156.1875 563.496094 156.449219 563.320312 156.695312 L 516.011719 217.25 C 515.554688 217.816406 515 218.257812 514.34375 218.574219 C 513.6875 218.886719 512.996094 219.046875 512.269531 219.042969 Z M 512.269531 219.042969 " fill-opacity="1" fill-rule="nonzero"/><path fill="#000000" d="M 415.464844 201.707031 C 415.152344 201.707031 414.84375 201.675781 414.539062 201.613281 C 414.234375 201.554688 413.9375 201.464844 413.648438 201.34375 C 413.359375 201.226562 413.085938 201.078125 412.828125 200.90625 C 412.570312 200.730469 412.332031 200.535156 412.109375 200.316406 C 411.890625 200.09375 411.695312 199.855469 411.519531 199.59375 C 411.347656 199.335938 411.203125 199.0625 411.082031 198.773438 C 410.964844 198.488281 410.875 198.191406 410.816406 197.882812 C 410.753906 197.578125 410.722656 197.269531 410.726562 196.957031 L 410.726562 149.824219 C 410.726562 149.515625 410.753906 149.207031 410.816406 148.902344 C 410.875 148.59375 410.964844 148.296875 411.085938 148.011719 C 411.203125 147.722656 411.351562 147.449219 411.523438 147.191406 C 411.695312 146.933594 411.894531 146.695312 412.113281 146.472656 C 412.332031 146.253906 412.574219 146.058594 412.832031 145.882812 C 413.089844 145.710938 413.363281 145.566406 413.652344 145.445312 C 413.9375 145.328125 414.234375 145.238281 414.539062 145.175781 C 414.84375 145.117188 415.152344 145.085938 415.464844 145.085938 C 415.777344 145.085938 416.082031 145.117188 416.390625 145.175781 C 416.695312 145.238281 416.992188 145.328125 417.277344 145.445312 C 417.566406 145.566406 417.839844 145.710938 418.097656 145.882812 C 418.355469 146.058594 418.597656 146.253906 418.816406 146.472656 C 419.035156 146.695312 419.230469 146.933594 419.40625 147.191406 C 419.578125 147.449219 419.722656 147.722656 419.84375 148.011719 C 419.960938 148.296875 420.050781 148.59375 420.113281 148.902344 C 420.171875 149.207031 420.203125 149.515625 420.203125 149.824219 L 420.203125 196.957031 C 420.203125 197.269531 420.175781 197.578125 420.113281 197.882812 C 420.054688 198.191406 419.964844 198.488281 419.84375 198.773438 C 419.726562 199.0625 419.582031 199.335938 419.40625 199.59375 C 419.234375 199.855469 419.039062 200.09375 418.820312 200.316406 C 418.597656 200.535156 418.359375 200.730469 418.101562 200.90625 C 417.839844 201.078125 417.566406 201.226562 417.28125 201.34375 C 416.992188 201.464844 416.695312 201.554688 416.390625 201.613281 C 416.085938 201.675781 415.777344 201.707031 415.464844 201.707031 Z M 415.464844 201.707031 " fill-opacity="1" fill-rule="nonzero"/></svg>