<svg xmlns="http://www.w3.org/2000/svg" xmlns:xlink="http://www.w3.org/1999/xlink" width="1080" zoomAndPan="magnify" viewBox="0 0 810 809.999993" height="1080" preserveAspectRatio="xMidYMid meet" version="1.0"><defs><clipPath id="44576c3850"><path d="M 320 336 L 652 336 L 652 648.773438 L 320 648.773438 Z M 320 336 " clip-rule="nonzero"/></clipPath><clipPath id="e6a9f4f155"><path d="M 158 161.273438 L 489 161.273438 L 489 473 L 158 473 Z M 158 161.273438 " clip-rule="nonzero"/></clipPath></defs><rect x="-81" width="972" fill="#ffffff" y="-80.999999" height="971.999992" fill-opacity="1"/><rect x="-81" width="972" fill="#ffffff" y="-80.999999" height="971.999992" fill-opacity="1"/><g clip-path="url(#44576c3850)"><path fill="#dd392b" d="M 523.859375 648.515625 C 518.496094 646.152344 512.574219 646.234375 507.019531 644.652344 C 488.824219 639.433594 472.386719 630.976562 458.753906 617.726562 C 423.164062 583.140625 387.171875 548.9375 352.359375 513.601562 C 301.78125 462.222656 314.117188 372.96875 376.523438 336.804688 C 383.804688 344.304688 392.597656 350.609375 398.503906 359.546875 C 405.796875 370.558594 404.058594 384.476562 394.609375 394.707031 C 383.453125 406.789062 378.027344 421.042969 378.710938 437.355469 C 379.335938 452.214844 384.855469 465.222656 395.613281 475.726562 C 429.402344 508.730469 463.03125 541.898438 497.109375 574.617188 C 513.835938 590.65625 534.058594 595.046875 555.890625 587.289062 C 577.902344 579.484375 590.574219 563.238281 593.542969 539.96875 C 595.921875 521.355469 589.902344 505.378906 576.65625 492.277344 C 555.09375 470.96875 533.339844 449.835938 511.535156 428.769531 C 509.046875 426.34375 508.359375 424.460938 509.542969 421.027344 C 516.820312 400.039062 518.640625 378.476562 515.703125 356.5 C 515.558594 355.398438 515.558594 354.28125 515.496094 353.113281 C 517.203125 352.589844 517.699219 354.121094 518.464844 354.871094 C 551.277344 386.824219 584.109375 418.761719 616.8125 450.84375 C 636.09375 469.753906 647.808594 492.515625 650.761719 519.570312 C 650.808594 519.90625 651.304688 520.207031 651.578125 520.542969 C 651.6875 528.84375 651.785156 537.140625 651.894531 545.441406 C 650.890625 545.746094 651.050781 546.605469 650.921875 547.355469 C 643.722656 594.027344 618.011719 625.628906 573.832031 642.324219 C 566.601562 645.050781 558.859375 645.625 551.613281 648.179688 C 542.355469 648.292969 533.101562 648.402344 523.859375 648.515625 " fill-opacity="1" fill-rule="nonzero"/></g><g clip-path="url(#e6a9f4f155)"><path fill="#000000" d="M 285.183594 161.074219 C 290.449219 163.199219 296.179688 163.214844 301.621094 164.667969 C 319.816406 169.472656 336.351562 177.59375 349.886719 190.632812 C 386.070312 225.507812 422.492188 260.175781 457.667969 296.085938 C 507.609375 347.082031 495.910156 434.308594 435.054688 471.558594 C 434.527344 471.878906 433.96875 472.183594 433.632812 472.375 C 426.898438 465.972656 419.9375 460.066406 413.839844 453.378906 C 404.042969 442.621094 404.679688 426.039062 415.070312 414.707031 C 424.566406 404.332031 430.007812 392.347656 430.871094 378.285156 C 431.878906 361.6875 427.265625 346.808594 415.453125 335.109375 C 381.089844 301.097656 346.664062 267.117188 311.566406 233.871094 C 294.789062 217.976562 274.121094 214.527344 252.511719 222.875 C 231.472656 231.015625 219.328125 246.894531 216.4375 269.402344 C 214.09375 287.835938 219.792969 303.796875 232.863281 316.789062 C 254.601562 338.382812 276.628906 359.691406 298.652344 381 C 300.933594 383.214844 301.398438 384.957031 300.359375 387.957031 C 292.730469 409.871094 290.863281 432.359375 294.3125 455.296875 C 294.375 455.695312 294.246094 456.109375 294.199219 456.621094 C 292.363281 456.1875 291.535156 454.703125 290.433594 453.636719 C 258.894531 422.894531 227.515625 391.980469 195.800781 361.429688 C 176.203125 342.566406 163.625 320.21875 159.445312 293.261719 C 159.347656 292.59375 159.203125 292.03125 158.4375 291.90625 C 158.328125 282.984375 158.214844 274.03125 158.117188 265.109375 C 160.019531 263.6875 158.835938 261.628906 159.15625 259.886719 C 167.40625 214.066406 193.28125 183.023438 237.027344 166.933594 C 244.273438 164.269531 252 163.660156 259.324219 161.394531 C 267.945312 161.28125 276.5625 161.1875 285.183594 161.074219 " fill-opacity="1" fill-rule="nonzero"/></g></svg>