<svg xmlns="http://www.w3.org/2000/svg" xmlns:xlink="http://www.w3.org/1999/xlink" width="1080" zoomAndPan="magnify" viewBox="0 0 810 809.999993" height="1080" preserveAspectRatio="xMidYMid meet" version="1.0"><rect x="-81" width="972" fill="#ffffff" y="-80.999999" height="971.999992" fill-opacity="1"/><rect x="-81" width="972" fill="#ffffff" y="-80.999999" height="971.999992" fill-opacity="1"/><path fill="#e92e37" d="M 502.476562 453.398438 L 646.949219 615.816406 C 647.6875 616.664062 648.382812 617.546875 649.035156 618.460938 C 649.691406 619.378906 650.296875 620.324219 650.859375 621.300781 C 651.417969 622.273438 651.929688 623.277344 652.394531 624.300781 C 652.855469 625.328125 653.269531 626.371094 653.628906 627.4375 C 653.992188 628.503906 654.300781 629.585938 654.554688 630.679688 C 654.8125 631.777344 655.011719 632.882812 655.160156 633.996094 C 655.308594 635.113281 655.402344 636.234375 655.441406 637.359375 C 655.480469 638.484375 655.460938 639.605469 655.390625 640.730469 C 655.320312 641.851562 655.195312 642.96875 655.011719 644.082031 C 654.832031 645.191406 654.597656 646.289062 654.3125 647.378906 C 654.023438 648.464844 653.683594 649.539062 653.292969 650.59375 C 652.898438 651.648438 652.457031 652.679688 651.964844 653.691406 C 651.46875 654.703125 650.929688 655.6875 650.339844 656.648438 C 649.75 657.605469 649.117188 658.53125 648.4375 659.429688 C 647.757812 660.328125 647.035156 661.1875 646.269531 662.015625 C 645.507812 662.839844 644.703125 663.628906 643.863281 664.375 C 643.023438 665.125 642.148438 665.828125 641.238281 666.492188 C 640.328125 667.152344 639.390625 667.769531 638.417969 668.339844 C 637.449219 668.914062 636.453125 669.433594 635.433594 669.910156 C 634.414062 670.382812 633.371094 670.804688 632.308594 671.175781 C 631.246094 671.546875 630.171875 671.867188 629.078125 672.132812 C 627.984375 672.402344 626.878906 672.613281 625.765625 672.773438 C 624.652344 672.933594 623.53125 673.035156 622.410156 673.085938 C 621.285156 673.136719 620.160156 673.132812 619.035156 673.070312 C 617.914062 673.011719 616.796875 672.898438 615.683594 672.726562 C 614.570312 672.558594 613.46875 672.335938 612.378906 672.058594 C 611.285156 671.785156 610.210938 671.453125 609.152344 671.074219 C 608.09375 670.691406 607.058594 670.257812 606.039062 669.777344 C 605.023438 669.292969 604.035156 668.761719 603.070312 668.183594 C 602.105469 667.601562 601.171875 666.976562 600.265625 666.308594 C 599.363281 665.636719 598.496094 664.925781 597.660156 664.167969 C 596.828125 663.414062 596.03125 662.617188 595.273438 661.785156 L 450.75 499.367188 C 449.570312 498.039062 448.496094 496.628906 447.53125 495.132812 C 457.386719 489.21875 466.605469 482.445312 475.191406 474.804688 C 483.777344 467.167969 491.578125 458.800781 498.601562 449.707031 C 499.988281 450.835938 501.28125 452.066406 502.476562 453.398438 Z M 502.476562 453.398438 " fill-opacity="1" fill-rule="nonzero"/><path fill="#fefaef" d="M 490.277344 216.730469 C 549.609375 283.429688 551.183594 381.503906 498.601562 449.699219 C 491.578125 458.792969 483.777344 467.160156 475.191406 474.796875 C 466.605469 482.433594 457.386719 489.210938 447.53125 495.125 C 373.671875 539.40625 276.457031 526.410156 217.121094 459.703125 C 150 384.285156 156.78125 268.746094 232.21875 201.652344 C 307.652344 134.558594 423.175781 141.304688 490.277344 216.730469 Z M 490.277344 216.730469 " fill-opacity="1" fill-rule="nonzero"/><path fill="#231f20" d="M 477.453125 477.371094 C 468.710938 485.152344 459.320312 492.050781 449.28125 498.074219 C 440.042969 503.621094 430.390625 508.320312 420.328125 512.175781 C 410.265625 516.03125 399.941406 518.980469 389.359375 521.023438 C 385.703125 521.742188 382.023438 522.347656 378.328125 522.847656 C 374.632812 523.34375 370.925781 523.730469 367.203125 524.003906 C 363.484375 524.28125 359.761719 524.445312 356.03125 524.496094 C 352.304688 524.546875 348.578125 524.488281 344.851562 524.316406 C 341.125 524.144531 337.410156 523.863281 333.699219 523.46875 C 329.992188 523.074219 326.296875 522.570312 322.621094 521.957031 C 318.941406 521.339844 315.285156 520.613281 311.648438 519.78125 C 308.015625 518.945312 304.410156 518.003906 300.832031 516.953125 C 297.253906 515.902344 293.707031 514.746094 290.199219 513.484375 C 286.691406 512.222656 283.222656 510.855469 279.792969 509.382812 C 276.367188 507.914062 272.988281 506.339844 269.65625 504.667969 C 266.320312 502.996094 263.042969 501.222656 259.816406 499.355469 C 256.589844 497.484375 253.421875 495.519531 250.3125 493.460938 C 247.203125 491.402344 244.15625 489.25 241.175781 487.007812 C 238.195312 484.765625 235.285156 482.4375 232.445312 480.019531 C 229.605469 477.605469 226.839844 475.105469 224.148438 472.523438 C 221.457031 469.941406 218.84375 467.28125 216.3125 464.542969 C 213.78125 461.804688 211.335938 458.992188 208.972656 456.109375 C 206.609375 453.222656 204.332031 450.269531 202.148438 447.246094 C 199.960938 444.226562 197.867188 441.140625 195.867188 437.996094 C 193.863281 434.847656 191.960938 431.644531 190.148438 428.382812 C 188.339844 425.121094 186.628906 421.8125 185.019531 418.445312 C 183.410156 415.082031 181.898438 411.675781 180.492188 408.222656 C 179.085938 404.765625 177.785156 401.273438 176.585938 397.742188 C 175.390625 394.210938 174.300781 390.644531 173.316406 387.046875 C 172.332031 383.453125 171.457031 379.828125 170.691406 376.179688 C 169.921875 372.527344 169.265625 368.859375 168.71875 365.171875 C 168.171875 361.480469 167.738281 357.777344 167.410156 354.0625 C 167.085938 350.347656 166.871094 346.628906 166.769531 342.898438 C 166.667969 339.171875 166.679688 335.445312 166.800781 331.714844 C 166.921875 327.988281 167.152344 324.269531 167.496094 320.554688 C 167.84375 316.839844 168.296875 313.140625 168.863281 309.457031 C 169.429688 305.769531 170.105469 302.101562 170.890625 298.457031 C 171.675781 294.8125 172.570312 291.191406 173.570312 287.601562 C 174.574219 284.007812 175.683594 280.449219 176.898438 276.925781 C 178.113281 273.398438 179.433594 269.914062 180.859375 266.464844 C 182.285156 263.019531 183.808594 259.617188 185.4375 256.261719 C 187.066406 252.90625 188.792969 249.605469 190.621094 246.351562 C 192.445312 243.101562 194.367188 239.90625 196.386719 236.769531 C 198.402344 233.632812 200.511719 230.5625 202.714844 227.550781 C 204.917969 224.542969 207.207031 221.601562 209.585938 218.726562 C 211.960938 215.855469 214.425781 213.054688 216.96875 210.328125 C 219.515625 207.605469 222.140625 204.957031 224.84375 202.390625 C 227.550781 199.820312 230.328125 197.335938 233.179688 194.933594 C 236.035156 192.535156 238.957031 190.21875 241.949219 187.992188 C 244.941406 185.765625 247.996094 183.632812 251.117188 181.589844 C 254.234375 179.542969 257.414062 177.597656 260.652344 175.742188 C 263.886719 173.890625 267.175781 172.136719 270.519531 170.480469 C 273.859375 168.824219 277.246094 167.269531 280.683594 165.816406 C 284.117188 164.363281 287.59375 163.015625 291.109375 161.769531 C 294.625 160.527344 298.171875 159.386719 301.757812 158.355469 C 305.339844 157.324219 308.953125 156.402344 312.589844 155.585938 C 316.230469 154.769531 319.890625 154.0625 323.570312 153.46875 C 327.253906 152.871094 330.949219 152.386719 334.660156 152.011719 C 338.371094 151.636719 342.089844 151.371094 345.816406 151.21875 C 349.539062 151.070312 353.269531 151.027344 356.996094 151.097656 C 360.726562 151.171875 364.449219 151.355469 368.167969 151.648438 C 371.882812 151.941406 375.589844 152.347656 379.285156 152.863281 C 382.976562 153.382812 386.652344 154.007812 390.308594 154.746094 C 393.964844 155.480469 397.59375 156.328125 401.199219 157.28125 C 404.804688 158.234375 408.378906 159.296875 411.917969 160.464844 C 415.460938 161.632812 418.964844 162.90625 422.429688 164.285156 C 425.894531 165.660156 429.316406 167.144531 432.691406 168.726562 C 436.070312 170.308594 439.394531 171.992188 442.671875 173.773438 C 445.949219 175.558594 449.167969 177.4375 452.328125 179.410156 C 455.492188 181.386719 458.59375 183.453125 461.632812 185.617188 C 464.671875 187.777344 467.644531 190.027344 470.550781 192.367188 C 473.453125 194.707031 476.285156 197.128906 479.046875 199.640625 C 481.804688 202.148438 484.484375 204.738281 487.089844 207.40625 C 489.695312 210.078125 492.214844 212.820312 494.65625 215.644531 C 497.09375 218.464844 499.449219 221.355469 501.714844 224.316406 C 503.980469 227.277344 506.15625 230.304688 508.242188 233.398438 C 510.328125 236.488281 512.316406 239.640625 514.214844 242.851562 C 516.109375 246.0625 517.90625 249.328125 519.609375 252.648438 C 521.308594 255.96875 522.90625 259.332031 524.40625 262.75 C 525.90625 266.164062 527.300781 269.621094 528.59375 273.117188 C 529.882812 276.617188 531.070312 280.152344 532.148438 283.722656 C 533.230469 287.289062 534.203125 290.890625 535.066406 294.515625 C 535.929688 298.144531 536.683594 301.796875 537.332031 305.46875 C 537.976562 309.140625 538.511719 312.832031 538.9375 316.535156 C 539.359375 320.242188 539.671875 323.957031 539.875 327.679688 C 540.078125 331.402344 540.167969 335.128906 540.144531 338.859375 C 540.125 342.589844 539.992188 346.3125 539.746094 350.035156 C 539.503906 353.757812 539.148438 357.46875 538.679688 361.167969 C 538.214844 364.867188 537.636719 368.550781 536.949219 372.214844 C 536.261719 375.882812 535.464844 379.523438 534.558594 383.140625 C 533.652344 386.757812 532.640625 390.34375 531.519531 393.902344 C 530.398438 397.460938 529.171875 400.980469 527.839844 404.464844 C 526.507812 407.945312 525.074219 411.386719 523.535156 414.785156 C 521.996094 418.183594 520.359375 421.53125 518.621094 424.832031 C 516.882812 428.128906 515.046875 431.375 513.113281 434.5625 C 511.183594 437.753906 509.15625 440.882812 507.035156 443.949219 C 504.914062 447.015625 502.703125 450.019531 500.402344 452.953125 C 498.105469 455.890625 495.71875 458.753906 493.246094 461.546875 C 490.773438 464.339844 488.222656 467.054688 485.585938 469.695312 C 482.953125 472.335938 480.242188 474.894531 477.453125 477.371094 Z M 234.480469 204.207031 C 160.574219 269.945312 153.9375 383.503906 219.675781 457.445312 C 276.929688 521.800781 372.007812 536.425781 445.773438 492.203125 C 455.441406 486.394531 464.488281 479.738281 472.914062 472.238281 C 481.339844 464.738281 488.996094 456.527344 495.890625 447.597656 C 548.367188 379.5 544.976562 283.351562 487.722656 218.988281 C 422.011719 145.109375 308.378906 138.46875 234.480469 204.207031 Z M 234.480469 204.207031 " fill-opacity="1" fill-rule="nonzero"/><path fill="#231f20" d="M 646.328125 667.164062 C 645.394531 667.992188 644.429688 668.769531 643.421875 669.5 C 642.414062 670.230469 641.375 670.910156 640.300781 671.539062 C 639.226562 672.167969 638.125 672.746094 636.996094 673.265625 C 635.867188 673.785156 634.710938 674.25 633.539062 674.660156 C 632.363281 675.066406 631.167969 675.414062 629.960938 675.707031 C 628.75 675.996094 627.527344 676.226562 626.296875 676.398438 C 625.0625 676.570312 623.824219 676.679688 622.582031 676.730469 C 621.339844 676.777344 620.097656 676.765625 618.855469 676.695312 C 617.613281 676.621094 616.375 676.488281 615.148438 676.296875 C 613.917969 676.101562 612.703125 675.847656 611.496094 675.535156 C 610.292969 675.222656 609.109375 674.851562 607.941406 674.421875 C 606.773438 673.992188 605.628906 673.507812 604.507812 672.964844 C 603.386719 672.421875 602.296875 671.828125 601.234375 671.179688 C 600.171875 670.53125 599.144531 669.832031 598.152344 669.082031 C 597.160156 668.332031 596.207031 667.535156 595.292969 666.691406 C 594.375 665.847656 593.503906 664.960938 592.675781 664.035156 L 448.199219 501.640625 C 446.898438 500.179688 445.714844 498.628906 444.65625 496.988281 L 442.738281 493.988281 L 445.773438 492.167969 C 455.441406 486.359375 464.488281 479.703125 472.914062 472.203125 C 481.339844 464.703125 488.996094 456.492188 495.890625 447.5625 L 498.050781 444.765625 L 500.78125 447.019531 C 502.289062 448.265625 503.691406 449.617188 504.988281 451.078125 L 649.457031 613.542969 C 650.28125 614.472656 651.058594 615.441406 651.789062 616.445312 C 652.519531 617.453125 653.199219 618.492188 653.828125 619.566406 C 654.453125 620.640625 655.027344 621.742188 655.550781 622.871094 C 656.070312 624 656.53125 625.152344 656.941406 626.328125 C 657.347656 627.5 657.695312 628.691406 657.984375 629.902344 C 658.277344 631.113281 658.507812 632.332031 658.675781 633.5625 C 658.847656 634.796875 658.957031 636.03125 659.007812 637.273438 C 659.054688 638.515625 659.042969 639.757812 658.972656 641 C 658.898438 642.242188 658.765625 643.476562 658.574219 644.703125 C 658.378906 645.933594 658.125 647.148438 657.8125 648.351562 C 657.5 649.554688 657.128906 650.738281 656.699219 651.90625 C 656.273438 653.074219 655.785156 654.21875 655.246094 655.335938 C 654.703125 656.457031 654.109375 657.546875 653.460938 658.609375 C 652.8125 659.667969 652.117188 660.695312 651.367188 661.6875 C 650.617188 662.683594 649.824219 663.636719 648.980469 664.550781 C 648.140625 665.464844 647.253906 666.335938 646.328125 667.164062 Z M 452.464844 496.113281 L 453.339844 497.101562 L 597.8125 659.511719 C 598.492188 660.261719 599.210938 660.976562 599.960938 661.660156 C 600.710938 662.339844 601.496094 662.984375 602.308594 663.585938 C 603.125 664.191406 603.964844 664.753906 604.835938 665.277344 C 605.703125 665.800781 606.597656 666.277344 607.511719 666.714844 C 608.429688 667.148438 609.363281 667.539062 610.316406 667.882812 C 611.269531 668.226562 612.238281 668.523438 613.222656 668.769531 C 614.207031 669.019531 615.199219 669.222656 616.199219 669.375 C 617.203125 669.527344 618.210938 669.628906 619.222656 669.683594 C 620.234375 669.738281 621.25 669.742188 622.261719 669.699219 C 623.273438 669.652344 624.28125 669.558594 625.285156 669.414062 C 626.289062 669.273438 627.285156 669.082031 628.269531 668.839844 C 629.253906 668.597656 630.226562 668.3125 631.183594 667.976562 C 632.140625 667.640625 633.078125 667.261719 634 666.832031 C 634.917969 666.40625 635.816406 665.9375 636.691406 665.421875 C 637.5625 664.90625 638.410156 664.351562 639.230469 663.753906 C 640.050781 663.15625 640.839844 662.523438 641.597656 661.847656 C 642.355469 661.175781 643.078125 660.464844 643.765625 659.722656 C 644.453125 658.976562 645.105469 658.199219 645.71875 657.390625 C 646.328125 656.582031 646.902344 655.746094 647.433594 654.882812 C 647.964844 654.019531 648.453125 653.132812 648.894531 652.222656 C 649.339844 651.308594 649.738281 650.378906 650.09375 649.429688 C 650.445312 648.476562 650.753906 647.511719 651.011719 646.53125 C 651.269531 645.550781 651.480469 644.5625 651.644531 643.558594 C 651.808594 642.558594 651.921875 641.550781 651.984375 640.539062 C 652.046875 639.527344 652.0625 638.515625 652.027344 637.503906 C 651.996094 636.488281 651.910156 635.480469 651.777344 634.472656 C 651.644531 633.46875 651.460938 632.472656 651.230469 631.484375 C 651 630.496094 650.722656 629.523438 650.398438 628.5625 C 650.074219 627.601562 649.703125 626.660156 649.285156 625.738281 C 648.867188 624.8125 648.40625 623.910156 647.898438 623.03125 C 647.394531 622.152344 646.847656 621.300781 646.257812 620.472656 C 645.671875 619.648438 645.042969 618.855469 644.375 618.089844 L 499.851562 455.671875 C 499.5625 455.347656 499.277344 455.03125 498.976562 454.726562 C 492.425781 462.871094 485.246094 470.414062 477.4375 477.359375 C 469.628906 484.304688 461.300781 490.558594 452.449219 496.113281 Z M 452.464844 496.113281 " fill-opacity="1" fill-rule="nonzero"/><path fill="#231f20" d="M 496.355469 500.199219 C 487.4375 508.039062 477.496094 514.234375 466.53125 518.785156 L 463.90625 512.488281 C 486.042969 503.128906 502.609375 487.925781 513.136719 467.292969 L 519.261719 470.398438 C 513.722656 481.363281 506.433594 491.007812 497.394531 499.324219 Z M 496.355469 500.199219 " fill-opacity="1" fill-rule="nonzero"/><path fill="#e92e37" d="M 392.328125 275.261719 L 474.785156 367.972656 C 475.210938 368.457031 475.730469 368.78125 476.351562 368.953125 L 502.257812 345.90625 C 502.164062 345.265625 501.898438 344.710938 501.460938 344.234375 L 419.011719 251.523438 C 418.03125 250.421875 416.5625 250.140625 415.722656 250.886719 L 392.109375 271.875 C 391.242188 272.707031 391.398438 274.160156 392.328125 275.261719 Z M 392.328125 275.261719 " fill-opacity="1" fill-rule="nonzero"/><path fill="#e92e37" d="M 279.042969 290.105469 L 404.046875 430.621094 C 404.503906 431.15625 405.066406 431.535156 405.734375 431.75 L 431.632812 408.703125 C 431.5 408.011719 431.191406 407.410156 430.714844 406.894531 L 305.730469 266.367188 C 304.644531 265.152344 303.105469 264.773438 302.230469 265.492188 L 278.617188 286.527344 C 277.765625 287.296875 277.96875 288.886719 279.042969 290.105469 Z M 279.042969 290.105469 " fill-opacity="1" fill-rule="nonzero"/><path fill="#000000" d="M 373.90625 325.449219 L 439.96875 399.710938 C 440.28125 400.058594 440.671875 400.234375 441.140625 400.246094 L 467.046875 377.207031 C 467.089844 376.742188 466.957031 376.335938 466.652344 375.984375 L 400.582031 301.710938 C 400.402344 301.535156 400.199219 301.398438 399.964844 301.300781 C 399.734375 301.207031 399.492188 301.15625 399.238281 301.15625 C 398.988281 301.15625 398.746094 301.207031 398.515625 301.300781 C 398.28125 301.398438 398.074219 301.535156 397.898438 301.710938 L 374.28125 322.746094 C 374.078125 322.898438 373.910156 323.085938 373.777344 323.304688 C 373.648438 323.527344 373.5625 323.765625 373.527344 324.019531 C 373.492188 324.273438 373.507812 324.523438 373.574219 324.769531 C 373.640625 325.019531 373.75 325.246094 373.90625 325.449219 Z M 373.90625 325.449219 " fill-opacity="1" fill-rule="nonzero"/><path fill="#000000" d="M 273.945312 355.429688 L 369.183594 462.5 C 369.523438 462.882812 369.945312 463.097656 370.453125 463.148438 L 396.359375 440.101562 C 396.363281 439.59375 396.195312 439.148438 395.859375 438.765625 L 300.628906 331.703125 C 300.449219 331.503906 300.242188 331.347656 300 331.234375 C 299.757812 331.117188 299.503906 331.054688 299.238281 331.042969 C 298.972656 331.027344 298.710938 331.066406 298.460938 331.15625 C 298.210938 331.246094 297.984375 331.382812 297.789062 331.5625 L 274.171875 352.597656 C 273.96875 352.769531 273.808594 352.972656 273.6875 353.210938 C 273.566406 353.449219 273.492188 353.699219 273.472656 353.964844 C 273.453125 354.230469 273.480469 354.492188 273.5625 354.746094 C 273.644531 355 273.773438 355.226562 273.945312 355.429688 Z M 273.945312 355.429688 " fill-opacity="1" fill-rule="nonzero"/><path fill="#e92e37" d="M 360.5 471.984375 C 360.496094 471.765625 360.421875 471.578125 360.28125 471.414062 L 359.109375 470.101562 L 291.273438 393.835938 C 290.808594 393.308594 289.75 393.484375 288.910156 394.238281 L 265.296875 415.226562 C 264.421875 415.980469 264.160156 416.976562 264.621094 417.539062 L 332.464844 493.796875 L 333.636719 495.117188 C 333.78125 495.273438 333.960938 495.367188 334.171875 495.398438 Z M 360.5 471.984375 " fill-opacity="1" fill-rule="nonzero"/><path fill="#231f20" d="M 368.195312 221.261719 C 367.761719 221.648438 367.367188 222.074219 367.019531 222.539062 C 366.667969 223.003906 366.363281 223.496094 366.113281 224.023438 C 365.859375 224.546875 365.660156 225.089844 365.511719 225.652344 C 365.363281 226.214844 365.273438 226.789062 365.242188 227.367188 C 365.207031 227.949219 365.230469 228.527344 365.308594 229.105469 C 365.390625 229.679688 365.523438 230.242188 365.714844 230.792969 C 365.90625 231.34375 366.148438 231.871094 366.441406 232.371094 C 366.734375 232.875 367.074219 233.34375 367.460938 233.777344 C 368 234.378906 368.605469 234.902344 369.28125 235.34375 L 363.15625 275.058594 L 362.222656 275.277344 C 361.042969 275.074219 359.875 275.109375 358.710938 275.378906 C 357.546875 275.648438 356.480469 276.132812 355.511719 276.835938 L 355.441406 276.835938 L 278.476562 249.398438 C 278.257812 249.070312 278.015625 248.757812 277.75 248.464844 C 277.375 247.988281 276.957031 247.554688 276.492188 247.164062 C 276.03125 246.773438 275.53125 246.433594 275 246.144531 C 274.46875 245.859375 273.910156 245.628906 273.332031 245.453125 C 272.75 245.277344 272.160156 245.164062 271.554688 245.113281 C 270.953125 245.0625 270.347656 245.070312 269.746094 245.140625 C 269.144531 245.210938 268.558594 245.34375 267.984375 245.535156 C 267.410156 245.726562 266.859375 245.972656 266.335938 246.277344 C 265.8125 246.582031 265.324219 246.9375 264.875 247.339844 C 264.421875 247.746094 264.015625 248.191406 263.65625 248.675781 C 263.296875 249.164062 262.992188 249.683594 262.738281 250.234375 C 262.484375 250.785156 262.289062 251.351562 262.152344 251.945312 C 262.015625 252.535156 261.941406 253.132812 261.929688 253.738281 C 261.914062 254.34375 261.960938 254.941406 262.070312 255.539062 C 262.179688 256.132812 262.347656 256.710938 262.578125 257.273438 C 262.804688 257.835938 263.085938 258.367188 263.425781 258.871094 C 263.761719 259.375 264.144531 259.835938 264.578125 260.261719 C 265.675781 261.523438 267.027344 262.398438 268.628906 262.886719 L 266.421875 315.195312 C 265.363281 315.578125 264.414062 316.144531 263.574219 316.894531 C 263.136719 317.28125 262.746094 317.707031 262.394531 318.171875 C 262.046875 318.636719 261.742188 319.132812 261.492188 319.65625 C 261.238281 320.179688 261.039062 320.722656 260.890625 321.285156 C 260.746094 321.847656 260.65625 322.421875 260.621094 323 C 260.589844 323.582031 260.613281 324.160156 260.691406 324.738281 C 260.773438 325.3125 260.90625 325.875 261.097656 326.425781 C 261.289062 326.976562 261.53125 327.503906 261.824219 328.003906 C 262.121094 328.507812 262.460938 328.976562 262.847656 329.410156 C 263.636719 330.304688 264.570312 331.003906 265.644531 331.519531 L 257.859375 378.539062 C 257.480469 378.539062 257.097656 378.5625 256.71875 378.609375 C 256.339844 378.660156 255.96875 378.730469 255.597656 378.828125 C 255.230469 378.925781 254.867188 379.042969 254.511719 379.1875 C 254.160156 379.328125 253.8125 379.492188 253.480469 379.679688 C 253.148438 379.863281 252.828125 380.070312 252.519531 380.296875 C 252.214844 380.523438 251.921875 380.769531 251.644531 381.035156 C 251.371094 381.296875 251.113281 381.578125 250.871094 381.875 C 250.632812 382.171875 250.410156 382.484375 250.210938 382.808594 C 250.011719 383.132812 249.832031 383.46875 249.671875 383.816406 C 249.515625 384.164062 249.378906 384.519531 249.265625 384.886719 C 249.15625 385.25 249.066406 385.621094 249 385.996094 C 248.933594 386.371094 248.894531 386.75 248.875 387.132812 C 248.859375 387.515625 248.867188 387.894531 248.898438 388.277344 C 248.929688 388.65625 248.984375 389.03125 249.0625 389.40625 C 249.144531 389.78125 249.246094 390.148438 249.371094 390.507812 C 249.496094 390.867188 249.644531 391.21875 249.816406 391.558594 C 249.988281 391.902344 250.179688 392.230469 250.390625 392.546875 C 250.605469 392.867188 250.835938 393.167969 251.085938 393.457031 C 251.335938 393.742188 251.605469 394.015625 251.890625 394.265625 C 252.175781 394.519531 252.476562 394.753906 252.792969 394.96875 C 253.109375 395.1875 253.4375 395.378906 253.777344 395.554688 C 254.117188 395.726562 254.464844 395.878906 254.824219 396.007812 C 255.183594 396.136719 255.550781 396.242188 255.921875 396.324219 C 256.296875 396.40625 256.671875 396.464844 257.050781 396.5 C 257.433594 396.535156 257.8125 396.546875 258.195312 396.53125 C 258.578125 396.515625 258.957031 396.480469 259.332031 396.417969 C 259.710938 396.355469 260.082031 396.269531 260.445312 396.160156 C 260.8125 396.050781 261.167969 395.917969 261.519531 395.761719 C 261.867188 395.609375 262.203125 395.433594 262.53125 395.234375 C 262.859375 395.035156 263.171875 394.820312 263.46875 394.582031 C 263.769531 394.34375 264.050781 394.089844 264.316406 393.8125 C 264.582031 393.539062 264.832031 393.25 265.0625 392.945312 C 265.289062 392.640625 265.5 392.324219 265.6875 391.992188 C 265.878906 391.660156 266.042969 391.316406 266.191406 390.964844 C 266.335938 390.609375 266.457031 390.25 266.558594 389.882812 C 266.65625 389.511719 266.730469 389.140625 266.785156 388.761719 C 266.835938 388.382812 266.863281 388.003906 266.867188 387.621094 C 266.871094 387.238281 266.851562 386.859375 266.804688 386.480469 C 266.761719 386.101562 266.691406 385.726562 266.597656 385.355469 C 266.507812 384.984375 266.390625 384.621094 266.25 384.265625 C 266.113281 383.910156 265.953125 383.566406 265.769531 383.230469 C 265.585938 382.894531 265.382812 382.570312 265.160156 382.261719 C 264.9375 381.953125 264.691406 381.660156 264.433594 381.382812 C 264.171875 381.101562 263.894531 380.839844 263.597656 380.597656 C 263.304688 380.355469 262.996094 380.132812 262.671875 379.929688 C 262.351562 379.722656 262.015625 379.542969 261.667969 379.378906 C 261.324219 379.21875 260.96875 379.082031 260.605469 378.964844 C 260.242188 378.847656 259.871094 378.753906 259.496094 378.6875 L 267.203125 332.050781 C 267.519531 332.136719 267.839844 332.199219 268.167969 332.25 C 268.492188 332.296875 268.816406 332.328125 269.144531 332.339844 C 269.476562 332.351562 269.800781 332.34375 270.128906 332.320312 C 270.457031 332.292969 270.785156 332.25 271.105469 332.191406 C 271.429688 332.128906 271.746094 332.050781 272.0625 331.953125 C 272.375 331.859375 272.683594 331.746094 272.984375 331.613281 C 273.285156 331.484375 273.578125 331.335938 273.863281 331.171875 C 274.148438 331.011719 274.425781 330.832031 274.691406 330.636719 C 274.957031 330.445312 275.210938 330.234375 275.453125 330.011719 C 275.695312 329.792969 275.921875 329.554688 276.140625 329.308594 C 276.355469 329.0625 276.558594 328.800781 276.742188 328.53125 C 276.929688 328.261719 277.101562 327.984375 277.257812 327.695312 C 277.414062 327.40625 277.554688 327.109375 277.675781 326.804688 C 277.800781 326.5 277.90625 326.1875 277.996094 325.871094 C 278.082031 325.554688 278.152344 325.234375 278.207031 324.910156 C 278.261719 324.585938 278.292969 324.257812 278.3125 323.929688 C 278.328125 323.601562 278.328125 323.273438 278.304688 322.945312 C 278.285156 322.617188 278.25 322.292969 278.191406 321.96875 C 278.136719 321.644531 278.0625 321.324219 277.96875 321.011719 C 277.878906 320.695312 277.769531 320.386719 277.644531 320.082031 C 277.515625 319.777344 277.375 319.484375 277.214844 319.195312 C 277.054688 318.910156 276.882812 318.628906 276.691406 318.363281 C 276.503906 318.09375 276.296875 317.835938 276.078125 317.59375 C 275.859375 317.347656 275.628906 317.113281 275.386719 316.894531 C 275.140625 316.675781 274.882812 316.46875 274.617188 316.277344 C 274.351562 316.085938 274.074219 315.910156 273.785156 315.75 C 273.5 315.589844 273.203125 315.445312 272.902344 315.320312 C 272.597656 315.191406 272.289062 315.082031 271.976562 314.988281 C 271.660156 314.894531 271.339844 314.820312 271.015625 314.761719 C 270.695312 314.703125 270.367188 314.664062 270.039062 314.644531 C 269.710938 314.621094 269.382812 314.617188 269.054688 314.632812 C 268.726562 314.648438 268.402344 314.683594 268.078125 314.734375 L 270.238281 263.128906 C 270.605469 263.171875 270.976562 263.1875 271.347656 263.183594 C 271.71875 263.175781 272.085938 263.148438 272.453125 263.097656 C 272.820312 263.042969 273.183594 262.96875 273.539062 262.871094 C 273.898438 262.773438 274.25 262.652344 274.589844 262.511719 C 274.933594 262.371094 275.265625 262.207031 275.589844 262.023438 C 275.910156 261.839844 276.222656 261.636719 276.519531 261.414062 C 276.8125 261.191406 277.097656 260.953125 277.363281 260.695312 C 277.628906 260.4375 277.878906 260.160156 278.109375 259.871094 C 278.34375 259.582031 278.554688 259.28125 278.75 258.964844 C 278.945312 258.648438 279.117188 258.320312 279.269531 257.984375 C 279.421875 257.644531 279.554688 257.300781 279.664062 256.945312 C 279.773438 256.589844 279.859375 256.230469 279.925781 255.867188 C 279.988281 255.5 280.03125 255.132812 280.046875 254.761719 C 280.066406 254.390625 280.0625 254.023438 280.03125 253.652344 C 280.003906 253.28125 279.953125 252.914062 279.878906 252.550781 C 279.804688 252.1875 279.707031 251.832031 279.585938 251.480469 L 354.191406 278.070312 C 353.816406 278.492188 353.480469 278.949219 353.191406 279.4375 C 352.898438 279.925781 352.660156 280.4375 352.464844 280.972656 C 352.273438 281.507812 352.136719 282.054688 352.046875 282.617188 C 351.960938 283.175781 351.929688 283.742188 351.949219 284.308594 C 351.972656 284.878906 352.046875 285.4375 352.179688 285.992188 C 352.308594 286.542969 352.488281 287.078125 352.71875 287.597656 C 352.953125 288.117188 353.234375 288.609375 353.558594 289.070312 C 353.886719 289.535156 354.253906 289.964844 354.664062 290.359375 C 355.074219 290.753906 355.515625 291.105469 355.992188 291.414062 C 356.46875 291.722656 356.972656 291.984375 357.5 292.195312 C 358.023438 292.40625 358.566406 292.566406 359.125 292.675781 C 359.683594 292.785156 360.246094 292.839844 360.8125 292.839844 C 361.382812 292.839844 361.945312 292.785156 362.5 292.675781 C 363.058594 292.566406 363.601562 292.40625 364.128906 292.195312 C 364.65625 291.984375 365.15625 291.722656 365.632812 291.414062 C 366.109375 291.105469 366.554688 290.753906 366.964844 290.359375 C 367.371094 289.964844 367.742188 289.535156 368.066406 289.070312 C 368.394531 288.609375 368.671875 288.117188 368.90625 287.597656 C 369.136719 287.078125 369.320312 286.542969 369.449219 285.992188 C 369.578125 285.4375 369.652344 284.878906 369.675781 284.308594 C 369.699219 283.742188 369.664062 283.175781 369.578125 282.617188 C 369.492188 282.054688 369.351562 281.507812 369.160156 280.972656 C 368.96875 280.4375 368.726562 279.925781 368.4375 279.4375 C 368.144531 278.949219 367.8125 278.492188 367.433594 278.070312 C 366.671875 277.203125 365.773438 276.519531 364.742188 276.015625 L 370.863281 236.078125 C 371.609375 236.375 372.382812 236.5625 373.183594 236.648438 C 373.984375 236.730469 374.78125 236.707031 375.574219 236.578125 C 376.367188 236.445312 377.128906 236.210938 377.855469 235.871094 C 378.585938 235.53125 379.257812 235.101562 379.871094 234.582031 C 380.480469 234.0625 381.011719 233.46875 381.464844 232.800781 C 381.917969 232.136719 382.269531 231.421875 382.527344 230.660156 C 382.785156 229.898438 382.9375 229.117188 382.980469 228.316406 C 383.027344 227.511719 382.964844 226.71875 382.792969 225.933594 L 382.164062 224.078125 C 381.796875 223.296875 381.332031 222.582031 380.761719 221.9375 C 380.375 221.5 379.945312 221.105469 379.476562 220.757812 C 379.007812 220.40625 378.511719 220.101562 377.984375 219.851562 C 377.457031 219.597656 376.910156 219.398438 376.34375 219.253906 C 375.777344 219.109375 375.203125 219.019531 374.621094 218.988281 C 374.035156 218.957031 373.453125 218.984375 372.875 219.066406 C 372.296875 219.152344 371.730469 219.289062 371.179688 219.484375 C 370.628906 219.679688 370.101562 219.929688 369.601562 220.226562 C 369.097656 220.527344 368.628906 220.871094 368.195312 221.261719 Z M 263.144531 382.71875 C 263.5 383.121094 263.808594 383.554688 264.066406 384.027344 C 264.324219 384.5 264.523438 384.996094 264.664062 385.511719 C 264.808594 386.03125 264.890625 386.558594 264.910156 387.09375 C 264.933594 387.632812 264.894531 388.164062 264.792969 388.691406 C 264.691406 389.21875 264.53125 389.730469 264.3125 390.222656 C 264.09375 390.710938 263.820312 391.171875 263.496094 391.601562 C 263.171875 392.027344 262.804688 392.414062 262.390625 392.757812 C 261.976562 393.101562 261.53125 393.390625 261.050781 393.632812 C 260.566406 393.871094 260.066406 394.054688 259.542969 394.179688 C 259.019531 394.304688 258.492188 394.367188 257.953125 394.371094 C 257.417969 394.375 256.886719 394.316406 256.363281 394.195312 C 255.835938 394.074219 255.335938 393.898438 254.851562 393.660156 C 254.367188 393.425781 253.917969 393.140625 253.5 392.800781 C 253.085938 392.460938 252.710938 392.078125 252.382812 391.652344 C 252.054688 391.226562 251.777344 390.769531 251.554688 390.28125 C 251.332031 389.792969 251.167969 389.285156 251.0625 388.757812 C 250.957031 388.230469 250.910156 387.699219 250.925781 387.160156 C 250.941406 386.625 251.019531 386.097656 251.15625 385.578125 C 251.296875 385.058594 251.492188 384.5625 251.742188 384.085938 C 251.996094 383.613281 252.300781 383.171875 252.652344 382.769531 C 253.007812 382.363281 253.402344 382.003906 253.839844 381.691406 C 254.273438 381.378906 254.742188 381.117188 255.238281 380.910156 C 255.734375 380.707031 256.246094 380.558594 256.777344 380.472656 C 257.308594 380.382812 257.839844 380.355469 258.378906 380.390625 L 259.191406 380.53125 C 260.757812 380.8125 262.074219 381.539062 263.144531 382.71875 Z M 274.664062 318.871094 C 275.175781 319.441406 275.585938 320.078125 275.890625 320.78125 C 276.195312 321.484375 276.378906 322.21875 276.445312 322.984375 C 276.507812 323.746094 276.445312 324.503906 276.261719 325.246094 C 276.078125 325.992188 275.777344 326.6875 275.363281 327.332031 C 274.949219 327.980469 274.445312 328.542969 273.847656 329.023438 C 273.246094 329.503906 272.585938 329.875 271.867188 330.136719 C 271.144531 330.398438 270.402344 330.539062 269.632812 330.558594 C 268.867188 330.574219 268.117188 330.46875 267.386719 330.242188 C 266.824219 330.066406 266.289062 329.824219 265.785156 329.523438 C 265.1875 329.164062 264.660156 328.722656 264.203125 328.195312 C 263.839844 327.792969 263.527344 327.351562 263.269531 326.878906 C 263.007812 326.402344 262.804688 325.90625 262.660156 325.382812 C 262.515625 324.863281 262.429688 324.332031 262.410156 323.789062 C 262.386719 323.25 262.429688 322.710938 262.53125 322.179688 C 262.636719 321.648438 262.796875 321.136719 263.019531 320.640625 C 263.242188 320.148438 263.515625 319.6875 263.847656 319.257812 C 264.175781 318.828125 264.550781 318.441406 264.96875 318.097656 C 265.386719 317.753906 265.839844 317.464844 266.328125 317.226562 C 266.855469 316.957031 267.410156 316.761719 267.988281 316.640625 C 268.59375 316.511719 269.203125 316.464844 269.820312 316.5 C 270.433594 316.535156 271.035156 316.648438 271.621094 316.839844 C 272.207031 317.03125 272.757812 317.296875 273.273438 317.636719 C 273.789062 317.976562 274.253906 318.375 274.664062 318.835938 Z M 275.808594 259.589844 C 275.464844 259.894531 275.09375 260.164062 274.699219 260.394531 C 274.300781 260.625 273.886719 260.816406 273.453125 260.96875 C 273.019531 261.121094 272.574219 261.226562 272.121094 261.289062 C 271.664062 261.351562 271.207031 261.371094 270.75 261.34375 C 270.292969 261.316406 269.839844 261.246094 269.394531 261.128906 C 268.949219 261.011719 268.523438 260.855469 268.109375 260.65625 C 267.695312 260.453125 267.304688 260.214844 266.9375 259.9375 C 266.574219 259.660156 266.238281 259.351562 265.933594 259.007812 C 265.625 258.664062 265.359375 258.296875 265.125 257.898438 C 264.894531 257.503906 264.699219 257.085938 264.550781 256.652344 C 264.398438 256.21875 264.292969 255.777344 264.230469 255.320312 C 264.167969 254.867188 264.148438 254.410156 264.175781 253.949219 C 264.203125 253.492188 264.273438 253.039062 264.390625 252.59375 C 264.503906 252.152344 264.664062 251.722656 264.863281 251.308594 C 265.0625 250.894531 265.300781 250.503906 265.578125 250.140625 C 265.855469 249.773438 266.164062 249.4375 266.507812 249.132812 C 266.851562 248.824219 267.222656 248.558594 267.617188 248.324219 C 268.011719 248.09375 268.429688 247.898438 268.863281 247.75 C 269.296875 247.597656 269.742188 247.492188 270.195312 247.429688 C 270.652344 247.363281 271.105469 247.347656 271.566406 247.371094 C 272.023438 247.398438 272.476562 247.472656 272.921875 247.585938 C 273.363281 247.703125 273.792969 247.859375 274.207031 248.058594 C 274.621094 248.261719 275.011719 248.5 275.378906 248.773438 C 275.742188 249.050781 276.082031 249.363281 276.386719 249.703125 C 276.691406 250.046875 276.960938 250.417969 277.195312 250.816406 C 277.425781 251.210938 277.617188 251.625 277.769531 252.058594 C 277.921875 252.496094 278.027344 252.941406 278.089844 253.394531 C 278.152344 253.851562 278.171875 254.308594 278.144531 254.765625 C 278.117188 255.226562 278.046875 255.675781 277.929688 256.121094 C 277.816406 256.566406 277.65625 256.996094 277.457031 257.410156 C 277.257812 257.824219 277.015625 258.214844 276.738281 258.582031 C 276.460938 258.945312 276.152344 259.28125 275.808594 259.589844 Z M 365.421875 289.238281 C 365.078125 289.542969 364.707031 289.8125 364.308594 290.046875 C 363.910156 290.277344 363.496094 290.46875 363.058594 290.621094 C 362.625 290.769531 362.179688 290.875 361.722656 290.9375 C 361.265625 291 360.808594 291.019531 360.347656 290.992188 C 359.890625 290.964844 359.4375 290.890625 358.992188 290.773438 C 358.546875 290.65625 358.117188 290.5 357.703125 290.296875 C 357.289062 290.097656 356.898438 289.855469 356.53125 289.578125 C 356.164062 289.300781 355.828125 288.988281 355.523438 288.644531 C 355.214844 288.296875 354.949219 287.925781 354.714844 287.53125 C 354.484375 287.132812 354.292969 286.714844 354.140625 286.28125 C 353.992188 285.84375 353.882812 285.398438 353.820312 284.945312 C 353.757812 284.488281 353.742188 284.03125 353.769531 283.570312 C 353.796875 283.109375 353.867188 282.65625 353.984375 282.210938 C 354.101562 281.765625 354.261719 281.335938 354.460938 280.921875 C 354.664062 280.507812 354.902344 280.117188 355.183594 279.75 C 355.460938 279.382812 355.773438 279.046875 356.117188 278.742188 C 356.347656 278.53125 356.597656 278.335938 356.859375 278.164062 C 357.226562 277.917969 357.609375 277.710938 358.011719 277.535156 C 358.417969 277.363281 358.835938 277.230469 359.261719 277.132812 C 359.691406 277.039062 360.128906 276.984375 360.566406 276.972656 C 361.007812 276.960938 361.441406 276.988281 361.878906 277.058594 C 362.3125 277.128906 362.734375 277.238281 363.148438 277.386719 C 363.5625 277.535156 363.957031 277.722656 364.335938 277.945312 C 364.714844 278.171875 365.070312 278.425781 365.398438 278.71875 C 365.730469 279.007812 366.027344 279.328125 366.296875 279.675781 C 366.570312 280.023438 366.804688 280.394531 367.003906 280.785156 C 367.203125 281.175781 367.363281 281.582031 367.488281 282.003906 C 367.613281 282.425781 367.695312 282.855469 367.738281 283.292969 C 367.777344 283.730469 367.78125 284.171875 367.738281 284.609375 C 367.699219 285.046875 367.617188 285.476562 367.496094 285.898438 C 367.375 286.320312 367.214844 286.730469 367.015625 287.121094 C 366.820312 287.515625 366.585938 287.882812 366.316406 288.234375 C 366.050781 288.582031 365.75 288.902344 365.421875 289.195312 Z M 379.957031 224.078125 C 380.34375 224.679688 380.632812 225.324219 380.824219 226.011719 C 381.011719 226.699219 381.09375 227.402344 381.066406 228.117188 C 381.042969 228.828125 380.910156 229.523438 380.671875 230.195312 C 380.433594 230.871094 380.101562 231.492188 379.671875 232.0625 C 379.246094 232.636719 378.738281 233.128906 378.160156 233.546875 C 377.582031 233.960938 376.953125 234.285156 376.273438 234.507812 C 375.59375 234.730469 374.898438 234.851562 374.183594 234.863281 C 373.472656 234.871094 372.773438 234.777344 372.085938 234.574219 C 371.527344 234.414062 371 234.179688 370.503906 233.875 C 369.898438 233.511719 369.359375 233.066406 368.894531 232.535156 C 368.589844 232.191406 368.320312 231.820312 368.085938 231.421875 C 367.855469 231.027344 367.664062 230.609375 367.511719 230.171875 C 367.363281 229.738281 367.257812 229.292969 367.195312 228.835938 C 367.132812 228.378906 367.113281 227.921875 367.140625 227.460938 C 367.167969 227.003906 367.242188 226.550781 367.359375 226.105469 C 367.476562 225.660156 367.632812 225.230469 367.835938 224.816406 C 368.035156 224.402344 368.277344 224.011719 368.554688 223.644531 C 368.835938 223.277344 369.144531 222.941406 369.492188 222.636719 C 369.835938 222.332031 370.207031 222.0625 370.605469 221.828125 C 371 221.597656 371.417969 221.40625 371.855469 221.253906 C 372.289062 221.105469 372.734375 221 373.191406 220.9375 C 373.648438 220.875 374.105469 220.859375 374.566406 220.886719 C 375.023438 220.914062 375.476562 220.984375 375.921875 221.101562 C 376.367188 221.21875 376.796875 221.378906 377.210938 221.582031 C 377.625 221.785156 378.015625 222.023438 378.382812 222.304688 C 378.75 222.582031 379.085938 222.894531 379.390625 223.238281 C 379.597656 223.503906 379.789062 223.785156 379.957031 224.078125 Z M 379.957031 224.078125 " fill-opacity="1" fill-rule="nonzero"/></svg>