<svg xmlns="http://www.w3.org/2000/svg" xmlns:xlink="http://www.w3.org/1999/xlink" width="1080" zoomAndPan="magnify" viewBox="0 0 810 809.999993" height="1080" preserveAspectRatio="xMidYMid meet" version="1.0"><defs><clipPath id="f1275f141b"><path d="M 191 143.558594 L 619 143.558594 L 619 666.308594 L 191 666.308594 Z M 191 143.558594 " clip-rule="nonzero"/></clipPath></defs><rect x="-81" width="972" fill="#ffffff" y="-80.999999" height="971.999992" fill-opacity="1"/><rect x="-81" width="972" fill="#ffffff" y="-80.999999" height="971.999992" fill-opacity="1"/><path fill="#dd392b" d="M 407.382812 634.085938 L 357.003906 600.679688 C 270.566406 541.816406 217.535156 444.238281 217.535156 340.828125 L 217.535156 274.011719 C 276.398438 265.527344 332.082031 240.601562 379.277344 201.359375 L 404.203125 179.085938 L 429.128906 201.359375 C 473.671875 240.601562 529.355469 265.527344 588.21875 274.011719 L 590.871094 274.011719 L 590.871094 340.828125 C 590.871094 444.238281 540.492188 541.816406 451.398438 600.679688 Z M 407.382812 634.085938 " fill-opacity="1" fill-rule="nonzero"/><g clip-path="url(#f1275f141b)"><path fill="#70060b" d="M 342.6875 622.421875 C 247.761719 558.253906 191.550781 452.722656 191.550781 340.828125 L 191.550781 250.679688 L 213.824219 247.496094 C 267.382812 240.074219 318.292969 216.738281 362.308594 181.207031 L 404.734375 143.558594 L 447.6875 181.738281 C 487.992188 216.738281 537.308594 239.542969 590.871094 247.496094 L 618.445312 247.496094 L 618.445312 340.828125 C 618.445312 454.84375 562.234375 559.84375 467.839844 621.890625 L 408.445312 666.4375 Z M 342.6875 622.421875 " fill-opacity="1" fill-rule="nonzero"/></g><path fill="#dd392b" d="M 407.382812 634.085938 L 357.003906 600.679688 C 270.566406 541.816406 217.535156 444.238281 217.535156 340.828125 L 217.535156 274.011719 C 276.398438 265.527344 332.082031 240.601562 379.277344 201.359375 L 404.203125 179.085938 L 429.128906 201.359375 C 473.671875 240.601562 529.355469 265.527344 588.21875 274.011719 L 590.871094 274.011719 L 590.871094 340.828125 C 590.871094 444.238281 540.492188 541.816406 451.398438 600.679688 Z M 407.382812 634.085938 " fill-opacity="1" fill-rule="nonzero"/><path fill="#ffffff" d="M 393.597656 474.996094 C 393.597656 474.996094 390.945312 474.996094 393.597656 474.996094 C 385.113281 474.996094 379.808594 472.34375 373.976562 466.511719 L 309.808594 404.996094 C 301.324219 396.511719 301.324219 380.074219 309.808594 371.585938 C 318.292969 363.101562 334.734375 363.101562 343.21875 371.585938 L 390.414062 413.480469 L 471.550781 335.527344 C 480.035156 327.042969 496.476562 327.042969 504.960938 335.527344 C 513.445312 344.011719 513.445312 360.449219 504.960938 368.9375 L 407.382812 469.164062 C 404.734375 472.34375 398.898438 474.996094 393.597656 474.996094 Z M 393.597656 474.996094 " fill-opacity="1" fill-rule="nonzero"/></svg>